<?xml version="1.0" encoding="UTF-8"?>
<svg id="Layer_1" data-name="Layer 1" xmlns="http://www.w3.org/2000/svg" xmlns:xlink="http://www.w3.org/1999/xlink" viewBox="0 0 128.86 147.53">
  <defs>
    <style>
      .cls-1 {
        fill: url(#radial-gradient-7);
      }

      .cls-2 {
        fill: url(#radial-gradient-6);
      }

      .cls-3 {
        fill: url(#radial-gradient-5);
      }

      .cls-4 {
        fill: url(#radial-gradient-4);
      }

      .cls-5 {
        fill: url(#radial-gradient-8);
      }

      .cls-6 {
        fill: url(#radial-gradient-3);
      }

      .cls-7 {
        fill: url(#radial-gradient-2);
      }

      .cls-8 {
        fill: url(#radial-gradient);
      }

      .cls-9 {
        clip-path: url(#clippath-16);
      }

      .cls-10 {
        clip-path: url(#clippath-10);
      }

      .cls-11 {
        clip-path: url(#clippath-14);
      }

      .cls-12 {
        clip-path: url(#clippath-12);
      }

      .cls-13 {
        clip-path: url(#clippath-4);
      }

      .cls-14 {
        clip-path: url(#clippath-2);
      }

      .cls-15 {
        clip-path: url(#clippath-6);
      }

      .cls-16 {
        clip-path: url(#clippath-8);
      }

      .cls-17 {
        fill: #fff;
      }

      .cls-18 {
        fill: #3c82f7;
      }

      .cls-19 {
        clip-path: url(#clippath);
      }
    </style>
    <clipPath id="clippath">
      <path class="cls-17" d="M1270.33-385.46c-.2,0-.48.54-.48.81v60.73c0,1.56-.94,2.82-2.13,3.53l-18.14,10.85c-.88.53-1.5.57-2.42.02l-21.19-12.68-15.66-9.32c-1.25-.87-2.55-2.12-2.55-3.81l-.02-20.85-15.79-9.19c-.18-.11-.61-.16-.79-.13-.14.02-.26.5-.26.85l.02,39.77c0,1.22.93,2.36,1.92,2.96l37.97,22.63,16.31,9.65c.89.53,1.55.56,2.51-.02l34.65-20.74c.92-.55,2.39-1.61,2.39-2.81l.02-61.27c0-.96-.75-1.93-1.48-2.37l-14.01-8.41c-.18-.11-.66-.21-.87-.2ZM1197.52-397.83c-.64-.02-1.27.2-2.05.67l-34.42,20.47c-.93.55-2.2,1.49-2.2,2.72v59.51c-.08,1.41.54,2.52,1.7,3.2l15.07,8.84.04-61.08c0-1.05.76-2.3,1.55-2.77l5.34-3.16,13.53-8.02c.91-.54,1.84-.43,2.87.19l35.96,21.39c1.34.79,2.69,2.44,2.7,3.96l.07,18.95c.14.72.6,1.25,1.2,1.68l15.7,9.19.02-40.93c0-.58-.32-1.3-.78-1.57l-17.62-10.65-36.64-21.83c-.77-.46-1.4-.7-2.03-.72ZM1237.75-446.99l-.04,60.66c-.14.92-.03,1.63.35,2.38l16.51,9.78.04-38.44,40.04,23.7c2.73,1.62,5.16,4.37,5.16,7.88l.02,72.8c0,2.85-1.63,5.87-3.99,7.3l-33.83,20.5-39.32,23.74.06,23.89,48.4-28.95,35.94-21.54c2.18-1.31,4.28-2.45,6.08-4.14,4.95-4.64,7.12-11.12,7.12-17.88l-.06-80.9c0-8.04-4.66-14.75-11.35-18.71l-55.96-33.15-15.16-8.93ZM1223.24-456.14l-27.12,15.99-29.14,17.25-32.69,19.6c-5.41,3.24-9,10.19-9,16.55l-.09,83.23c0,3.98,1.31,7.62,3.09,11,1.66,3.17,4.08,5.48,7.04,7.45l15.62,9.34,56.76,33.94.02-62.25-16.77-9.93-.09,37.81-40.88-24.55c-2.46-1.48-4.36-4.39-4.36-7.38l-.04-72.51c0-3.58,2.21-6.48,5.14-8.23l72.56-42.8-.06-24.51Z"/>
    </clipPath>
    <clipPath id="clippath-2">
      <path d="M884.04-385.46c-.2,0-.48.54-.48.81v60.73c0,1.56-.94,2.82-2.13,3.53l-18.14,10.85c-.88.53-1.5.57-2.42.02l-21.19-12.68-15.66-9.32c-1.25-.87-2.55-2.12-2.55-3.81l-.02-20.85-15.79-9.19c-.18-.11-.61-.16-.79-.13-.14.02-.26.5-.26.85l.02,39.77c0,1.22.93,2.36,1.92,2.96l37.97,22.63,16.31,9.65c.89.53,1.55.56,2.51-.02l34.65-20.74c.92-.55,2.39-1.61,2.39-2.81l.02-61.27c0-.96-.75-1.93-1.48-2.37l-14.01-8.41c-.18-.11-.66-.21-.87-.2ZM811.23-397.83c-.64-.02-1.27.2-2.05.67l-34.42,20.47c-.93.55-2.2,1.49-2.2,2.72v59.51c-.08,1.41.54,2.52,1.7,3.2l15.07,8.84.04-61.08c0-1.05.76-2.3,1.55-2.77l5.34-3.16,13.53-8.02c.91-.54,1.84-.43,2.87.19l35.96,21.39c1.34.79,2.69,2.44,2.7,3.96l.07,18.95c.14.72.6,1.25,1.2,1.68l15.7,9.19.02-40.93c0-.58-.32-1.3-.78-1.57l-17.62-10.65-36.64-21.83c-.77-.46-1.4-.7-2.03-.72ZM851.46-446.99l-.04,60.66c-.14.92-.03,1.63.35,2.38l16.51,9.78.04-38.44,40.04,23.7c2.73,1.62,5.16,4.37,5.16,7.88l.02,72.8c0,2.85-1.63,5.87-3.99,7.3l-33.83,20.5-39.32,23.74.06,23.89,48.4-28.95,35.94-21.54c2.18-1.31,4.28-2.45,6.08-4.14,4.95-4.64,7.12-11.12,7.12-17.88l-.06-80.9c0-8.04-4.66-14.75-11.35-18.71l-55.96-33.15-15.16-8.93ZM836.95-456.14l-27.12,15.99-29.14,17.25-32.69,19.6c-5.41,3.24-9,10.19-9,16.55l-.09,83.23c0,3.98,1.31,7.62,3.09,11,1.66,3.17,4.08,5.48,7.04,7.45l15.62,9.34,56.76,33.94.02-62.25-16.77-9.93-.09,37.81-40.88-24.55c-2.46-1.48-4.36-4.39-4.36-7.38l-.04-72.51c0-3.58,2.21-6.48,5.14-8.23l72.56-42.8-.06-24.51Z"/>
    </clipPath>
    <clipPath id="clippath-4">
      <path d="M868.44,46.69c-.14,0-.32.35-.32.54v40.12c0,1.03-.62,1.86-1.4,2.33l-11.98,7.17c-.58.35-.99.38-1.6.01l-14-8.38-10.34-6.15c-.83-.58-1.69-1.4-1.69-2.52v-13.78s-10.44-6.07-10.44-6.07c-.12-.07-.41-.11-.53-.09-.09.02-.17.33-.17.56v26.27c.01.81.62,1.56,1.28,1.95l25.08,14.95,10.77,6.37c.59.35,1.02.37,1.66-.01l22.89-13.7c.61-.36,1.58-1.06,1.58-1.86v-40.47c.01-.63-.48-1.27-.97-1.56l-9.26-5.56c-.12-.07-.44-.14-.57-.13ZM820.35,38.52c-.42-.01-.84.13-1.36.44l-22.74,13.52c-.61.37-1.45.99-1.45,1.8v39.31c-.05.93.36,1.66,1.12,2.11l9.95,5.84.02-40.35c0-.7.5-1.52,1.03-1.83l3.53-2.09,8.94-5.3c.6-.35,1.21-.28,1.89.12l23.75,14.13c.88.52,1.78,1.61,1.78,2.61l.05,12.52c.1.47.4.82.79,1.11l10.37,6.07v-27.04c.01-.39-.2-.86-.5-1.04l-11.64-7.03-24.2-14.42c-.51-.3-.92-.47-1.34-.48ZM846.92,6.04l-.02,40.07c-.09.6-.02,1.08.23,1.58l10.91,6.46.02-25.39,26.45,15.66c1.8,1.07,3.41,2.89,3.41,5.2v48.09c.01,1.88-1.06,3.88-2.63,4.82l-22.35,13.54-25.97,15.68.04,15.78,31.97-19.12,23.74-14.23c1.44-.86,2.83-1.62,4.02-2.74,3.27-3.07,4.71-7.34,4.7-11.81l-.04-53.44c0-5.31-3.08-9.74-7.5-12.36l-36.97-21.9-10.01-5.9ZM837.34,0l-17.91,10.56-19.25,11.39-21.59,12.94c-3.57,2.14-5.94,6.73-5.95,10.93l-.06,54.98c0,2.63.87,5.03,2.04,7.27,1.1,2.09,2.7,3.62,4.65,4.92l10.32,6.17,37.49,22.42v-41.12s-11.06-6.56-11.06-6.56l-.06,24.97-27-16.22c-1.63-.98-2.88-2.9-2.88-4.87l-.02-47.9c0-2.36,1.46-4.28,3.39-5.43l47.93-28.27-.04-16.19Z"/>
    </clipPath>
    <clipPath id="clippath-6">
      <path class="cls-18" d="M497.75-385.46c-.2,0-.48.54-.48.81v60.73c0,1.56-.94,2.82-2.13,3.53l-18.14,10.85c-.88.53-1.5.57-2.42.02l-21.19-12.68-15.66-9.32c-1.25-.87-2.55-2.12-2.55-3.81l-.02-20.85-15.79-9.19c-.18-.11-.61-.16-.79-.13-.14.02-.26.5-.26.85l.02,39.77c0,1.22.93,2.36,1.92,2.96l37.97,22.63,16.31,9.65c.89.53,1.55.56,2.51-.02l34.65-20.74c.92-.55,2.39-1.61,2.39-2.81l.02-61.27c0-.96-.75-1.93-1.48-2.37l-14.01-8.41c-.18-.11-.66-.21-.87-.2ZM424.95-397.83c-.64-.02-1.27.2-2.05.67l-34.42,20.47c-.93.55-2.2,1.49-2.2,2.72v59.51c-.08,1.41.54,2.52,1.7,3.2l15.07,8.84.04-61.08c0-1.05.76-2.3,1.55-2.77l5.34-3.16,13.53-8.02c.91-.54,1.84-.43,2.87.19l35.96,21.39c1.34.79,2.69,2.44,2.7,3.96l.07,18.95c.14.72.6,1.25,1.2,1.68l15.7,9.19.02-40.93c0-.58-.32-1.3-.78-1.57l-17.62-10.65-36.64-21.83c-.77-.46-1.4-.7-2.03-.72ZM465.18-446.99l-.04,60.66c-.14.92-.03,1.63.35,2.38l16.51,9.78.04-38.44,40.04,23.7c2.73,1.62,5.16,4.37,5.16,7.88l.02,72.8c0,2.85-1.63,5.87-3.99,7.3l-33.83,20.5-39.32,23.74.06,23.89,48.4-28.95,35.94-21.54c2.18-1.31,4.28-2.45,6.08-4.14,4.95-4.64,7.12-11.12,7.12-17.88l-.06-80.9c0-8.04-4.66-14.75-11.35-18.71l-55.96-33.15-15.16-8.93ZM450.66-456.14l-27.12,15.99-29.14,17.25-32.69,19.6c-5.41,3.24-9,10.19-9,16.55l-.09,83.23c0,3.98,1.31,7.62,3.09,11,1.66,3.17,4.08,5.48,7.04,7.45l15.62,9.34,56.76,33.94.02-62.25-16.77-9.93-.09,37.81-40.88-24.55c-2.46-1.48-4.36-4.39-4.36-7.38l-.04-72.51c0-3.58,2.21-6.48,5.14-8.23l72.56-42.8-.06-24.51Z"/>
    </clipPath>
    <clipPath id="clippath-8">
      <path class="cls-18" d="M351.08-98.24c-.06,0-.14.16-.14.24v18.07c0,.46-.28.84-.63,1.05l-5.4,3.23c-.26.16-.45.17-.72,0l-6.3-3.77-4.66-2.77c-.37-.26-.76-.63-.76-1.13v-6.21s-4.7-2.73-4.7-2.73c-.05-.03-.18-.05-.24-.04-.04,0-.08.15-.08.25v11.83c0,.36.28.7.58.88l11.3,6.73,4.85,2.87c.27.16.46.17.75,0l10.31-6.17c.27-.16.71-.48.71-.84v-18.23c0-.29-.22-.57-.43-.7l-4.17-2.5c-.05-.03-.2-.06-.26-.06ZM329.42-101.92c-.19,0-.38.06-.61.2l-10.24,6.09c-.28.16-.65.44-.65.81v17.71c-.02.42.16.75.51.95l4.48,2.63v-18.18c.01-.31.24-.68.47-.83l1.59-.94,4.03-2.39c.27-.16.55-.13.85.06l10.7,6.36c.4.24.8.73.8,1.18l.02,5.64c.04.21.18.37.36.5l4.67,2.73v-12.18c0-.17-.09-.39-.23-.47l-5.24-3.17-10.9-6.5c-.23-.14-.42-.21-.61-.21ZM341.39-116.54v18.05c-.05.27-.02.48.09.71l4.91,2.91v-11.44s11.93,7.05,11.93,7.05c.81.48,1.53,1.3,1.53,2.34v21.66c0,.85-.48,1.75-1.18,2.17l-10.07,6.1-11.7,7.06.02,7.11,14.4-8.61,10.69-6.41c.65-.39,1.27-.73,1.81-1.23,1.47-1.38,2.12-3.31,2.12-5.32l-.02-24.07c0-2.39-1.39-4.39-3.38-5.57l-16.65-9.86-4.51-2.66ZM337.07-119.27l-8.07,4.76-8.67,5.13-9.73,5.83c-1.61.96-2.68,3.03-2.68,4.92l-.03,24.77c0,1.19.39,2.27.92,3.27.49.94,1.21,1.63,2.1,2.22l4.65,2.78,16.89,10.1v-18.52s-4.98-2.95-4.98-2.95l-.03,11.25-12.16-7.31c-.73-.44-1.3-1.31-1.3-2.19v-21.57c-.01-1.07.65-1.93,1.52-2.45l21.59-12.73-.02-7.29Z"/>
    </clipPath>
    <clipPath id="clippath-10">
      <path class="cls-18" d="M482.15,46.69c-.14,0-.32.35-.32.54v40.12c0,1.03-.62,1.86-1.4,2.33l-11.98,7.17c-.58.35-.99.38-1.6.01l-14-8.38-10.34-6.15c-.83-.58-1.69-1.4-1.69-2.52v-13.78s-10.44-6.07-10.44-6.07c-.12-.07-.41-.11-.53-.09-.09.02-.17.33-.17.56v26.27c.01.81.62,1.56,1.28,1.95l25.08,14.95,10.77,6.37c.59.35,1.02.37,1.66-.01l22.89-13.7c.61-.36,1.58-1.06,1.58-1.86v-40.47c.01-.63-.48-1.27-.97-1.56l-9.26-5.56c-.12-.07-.44-.14-.57-.13ZM434.06,38.52c-.42-.01-.84.13-1.36.44l-22.74,13.52c-.61.37-1.45.99-1.45,1.8v39.31c-.05.93.36,1.66,1.12,2.11l9.95,5.84.02-40.35c0-.7.5-1.52,1.03-1.83l3.53-2.09,8.94-5.3c.6-.35,1.21-.28,1.89.12l23.75,14.13c.88.52,1.78,1.61,1.78,2.61l.05,12.52c.1.47.4.82.79,1.11l10.37,6.07v-27.04c.01-.39-.2-.86-.5-1.04l-11.64-7.03-24.2-14.42c-.51-.3-.92-.47-1.34-.48ZM460.63,6.04l-.02,40.07c-.09.6-.02,1.08.23,1.58l10.91,6.46.02-25.39,26.45,15.66c1.8,1.07,3.41,2.89,3.41,5.2v48.09c.01,1.88-1.06,3.88-2.63,4.82l-22.35,13.54-25.97,15.68.04,15.78,31.97-19.12,23.74-14.23c1.44-.86,2.83-1.62,4.02-2.74,3.27-3.07,4.71-7.34,4.7-11.81l-.04-53.44c0-5.31-3.08-9.74-7.5-12.36l-36.97-21.9-10.01-5.9ZM451.05,0l-17.91,10.56-19.25,11.39-21.59,12.94c-3.57,2.14-5.94,6.73-5.95,10.93l-.06,54.98c0,2.63.87,5.03,2.04,7.27,1.1,2.09,2.7,3.62,4.65,4.92l10.32,6.17,37.49,22.42v-41.12s-11.06-6.56-11.06-6.56l-.06,24.97-27-16.22c-1.63-.98-2.88-2.9-2.88-4.87l-.02-47.9c0-2.36,1.46-4.28,3.39-5.43l47.93-28.27-.04-16.19Z"/>
    </clipPath>
    <radialGradient id="radial-gradient" cx="64.43" cy="-344.47" fx="64.43" fy="-344.47" r="104.85" gradientUnits="userSpaceOnUse">
      <stop offset="0" stop-color="#67e8f9"/>
      <stop offset="1" stop-color="#1b41b1"/>
    </radialGradient>
    <clipPath id="clippath-12">
      <path class="cls-8" d="M112.02-385.46c-.2,0-.48.54-.48.81v60.73c0,1.56-.94,2.82-2.13,3.53l-18.14,10.85c-.88.53-1.5.57-2.42.02l-21.19-12.68-15.66-9.32c-1.25-.87-2.55-2.12-2.55-3.81l-.02-20.85-15.79-9.19c-.18-.11-.61-.16-.79-.13-.14.02-.26.5-.26.85l.02,39.77c0,1.22.93,2.36,1.92,2.96l37.97,22.63,16.31,9.65c.89.53,1.55.56,2.51-.02l34.65-20.74c.92-.55,2.39-1.61,2.39-2.81l.02-61.27c0-.96-.75-1.93-1.48-2.37l-14.01-8.41c-.18-.11-.66-.21-.87-.2ZM39.21-397.83c-.64-.02-1.27.2-2.05.67l-34.42,20.47c-.93.55-2.2,1.49-2.2,2.72v59.51c-.08,1.41.54,2.52,1.7,3.2l15.07,8.84.04-61.08c0-1.05.76-2.3,1.55-2.77l5.34-3.16,13.53-8.02c.91-.54,1.84-.43,2.87.19l35.96,21.39c1.34.79,2.69,2.44,2.7,3.96l.07,18.95c.14.72.6,1.25,1.2,1.68l15.7,9.19.02-40.93c0-.58-.32-1.3-.78-1.57l-17.62-10.65-36.64-21.83c-.77-.46-1.4-.7-2.03-.72ZM79.44-446.99l-.04,60.66c-.14.92-.03,1.63.35,2.38l16.51,9.78.04-38.44,40.04,23.7c2.73,1.62,5.16,4.37,5.16,7.88l.02,72.8c0,2.85-1.63,5.87-3.99,7.3l-33.83,20.5-39.32,23.74.06,23.89,48.4-28.95,35.94-21.54c2.18-1.31,4.28-2.45,6.08-4.14,4.95-4.64,7.12-11.12,7.12-17.88l-.06-80.9c0-8.04-4.66-14.75-11.35-18.71l-55.96-33.15-15.16-8.93ZM64.93-456.14l-27.12,15.99-29.14,17.25-32.69,19.6c-5.41,3.24-9,10.19-9,16.55l-.09,83.23c0,3.98,1.31,7.62,3.09,11,1.66,3.17,4.08,5.48,7.04,7.45l15.62,9.34,56.76,33.94.02-62.25-16.77-9.93-.09,37.81-40.88-24.55c-2.46-1.48-4.36-4.39-4.36-7.38l-.04-72.51c0-3.58,2.21-6.48,5.14-8.23l72.56-42.8-.06-24.51Z"/>
    </clipPath>
    <radialGradient id="radial-gradient-2" cx="118.48" cy="-263.86" fx="118.48" fy="-263.86" r="222.44" gradientUnits="userSpaceOnUse">
      <stop offset=".13" stop-color="#67e8f9"/>
      <stop offset=".65" stop-color="#3c82f7"/>
      <stop offset="1" stop-color="#1b41b1"/>
    </radialGradient>
    <radialGradient id="radial-gradient-3" cx="-49.37" cy="-86.04" fx="-49.37" fy="-86.04" r="31.2" xlink:href="#radial-gradient"/>
    <radialGradient id="radial-gradient-4" cx="-49.37" cy="-86.04" fx="-49.37" fy="-86.04" r="31.2" xlink:href="#radial-gradient"/>
    <clipPath id="clippath-14">
      <path class="cls-4" d="M-35.21-98.24c-.06,0-.14.16-.14.24v18.07c0,.46-.28.84-.63,1.05l-5.4,3.23c-.26.16-.45.17-.72,0l-6.3-3.77-4.66-2.77c-.37-.26-.76-.63-.76-1.13v-6.21s-4.7-2.73-4.7-2.73c-.05-.03-.18-.05-.24-.04-.04,0-.08.15-.08.25v11.83c0,.36.28.7.58.88l11.3,6.73,4.85,2.87c.27.16.46.17.75,0l10.31-6.17c.27-.16.71-.48.71-.84v-18.23c0-.29-.22-.57-.43-.7l-4.17-2.5c-.05-.03-.2-.06-.26-.06ZM-56.87-101.92c-.19,0-.38.06-.61.2l-10.24,6.09c-.28.16-.65.44-.65.81v17.71c-.02.42.16.75.51.95l4.48,2.63v-18.18c.01-.31.24-.68.47-.83l1.59-.94,4.03-2.39c.27-.16.55-.13.85.06l10.7,6.36c.4.24.8.73.8,1.18l.02,5.64c.04.21.18.37.36.5l4.67,2.73v-12.18c0-.17-.09-.39-.23-.47l-5.24-3.17-10.9-6.5c-.23-.14-.42-.21-.61-.21ZM-44.9-116.54v18.05c-.05.27-.02.48.09.71l4.91,2.91v-11.44s11.93,7.05,11.93,7.05c.81.48,1.53,1.3,1.53,2.34v21.66c0,.85-.48,1.75-1.18,2.17l-10.07,6.1-11.7,7.06.02,7.11,14.4-8.61,10.69-6.41c.65-.39,1.27-.73,1.81-1.23,1.47-1.38,2.12-3.31,2.12-5.32l-.02-24.07c0-2.39-1.39-4.39-3.38-5.57l-16.65-9.86-4.51-2.66ZM-49.22-119.27l-8.07,4.76-8.67,5.13-9.73,5.83c-1.61.96-2.68,3.03-2.68,4.92l-.03,24.77c0,1.19.39,2.27.92,3.27.49.94,1.21,1.63,2.1,2.22l4.65,2.78,16.89,10.1v-18.52s-4.98-2.95-4.98-2.95l-.03,11.25-12.16-7.31c-.73-.44-1.3-1.31-1.3-2.19v-21.57c-.01-1.07.65-1.93,1.52-2.45l21.59-12.73-.02-7.29Z"/>
    </clipPath>
    <radialGradient id="radial-gradient-5" cx="-33.28" cy="-62.06" fx="-33.28" fy="-62.06" r="66.19" xlink:href="#radial-gradient-2"/>
    <radialGradient id="radial-gradient-6" cx="64.43" cy="73.77" fx="64.43" fy="73.77" r="69.26" xlink:href="#radial-gradient"/>
    <radialGradient id="radial-gradient-7" cx="64.43" cy="73.77" fx="64.43" fy="73.77" r="69.26" xlink:href="#radial-gradient"/>
    <clipPath id="clippath-16">
      <path class="cls-1" d="M95.86,46.69c-.14,0-.32.35-.32.54v40.12c0,1.03-.62,1.86-1.4,2.33l-11.98,7.17c-.58.35-.99.38-1.6.01l-14-8.38-10.34-6.15c-.83-.58-1.69-1.4-1.69-2.52v-13.78s-10.44-6.07-10.44-6.07c-.12-.07-.41-.11-.53-.09-.09.02-.17.33-.17.56v26.27c.01.81.62,1.56,1.28,1.95l25.08,14.95,10.77,6.37c.59.35,1.02.37,1.66-.01l22.89-13.7c.61-.36,1.58-1.06,1.58-1.86v-40.47c.01-.63-.48-1.27-.97-1.56l-9.26-5.56c-.12-.07-.44-.14-.57-.13ZM47.77,38.52c-.42-.01-.84.13-1.36.44l-22.74,13.52c-.61.37-1.45.99-1.45,1.8v39.31c-.05.93.36,1.66,1.12,2.11l9.95,5.84.02-40.35c0-.7.5-1.52,1.03-1.83l3.53-2.09,8.94-5.3c.6-.35,1.21-.28,1.89.12l23.75,14.13c.88.52,1.78,1.61,1.78,2.61l.05,12.52c.1.47.4.82.79,1.11l10.37,6.07v-27.04c.01-.39-.2-.86-.5-1.04l-11.64-7.03-24.2-14.42c-.51-.3-.92-.47-1.34-.48ZM74.35,6.04l-.02,40.07c-.09.6-.02,1.08.23,1.58l10.91,6.46.02-25.39,26.45,15.66c1.8,1.07,3.41,2.89,3.41,5.2v48.09c.01,1.88-1.06,3.88-2.63,4.82l-22.35,13.54-25.97,15.68.04,15.78,31.97-19.12,23.74-14.23c1.44-.86,2.83-1.62,4.02-2.74,3.27-3.07,4.71-7.34,4.7-11.81l-.04-53.44c0-5.31-3.08-9.74-7.5-12.36l-36.97-21.9-10.01-5.9ZM64.76,0l-17.91,10.56-19.25,11.39-21.59,12.94C2.44,37.04.07,41.63.06,45.83L0,100.81c0,2.63.87,5.03,2.04,7.27,1.1,2.09,2.7,3.62,4.65,4.92l10.32,6.17,37.49,22.42v-41.12s-11.06-6.56-11.06-6.56l-.06,24.97-27-16.22c-1.63-.98-2.88-2.9-2.88-4.87l-.02-47.9c0-2.36,1.46-4.28,3.39-5.43l47.93-28.27-.04-16.19Z"/>
    </clipPath>
    <radialGradient id="radial-gradient-8" cx="100.13" cy="127.01" fx="100.13" fy="127.01" r="146.93" xlink:href="#radial-gradient-2"/>
  </defs>
  <g>
    <path class="cls-17" d="M1270.33-385.46c-.2,0-.48.54-.48.81v60.73c0,1.56-.94,2.82-2.13,3.53l-18.14,10.85c-.88.53-1.5.57-2.42.02l-21.19-12.68-15.66-9.32c-1.25-.87-2.55-2.12-2.55-3.81l-.02-20.85-15.79-9.19c-.18-.11-.61-.16-.79-.13-.14.02-.26.5-.26.85l.02,39.77c0,1.22.93,2.36,1.92,2.96l37.97,22.63,16.31,9.65c.89.53,1.55.56,2.51-.02l34.65-20.74c.92-.55,2.39-1.61,2.39-2.81l.02-61.27c0-.96-.75-1.93-1.48-2.37l-14.01-8.41c-.18-.11-.66-.21-.87-.2ZM1197.52-397.83c-.64-.02-1.27.2-2.05.67l-34.42,20.47c-.93.55-2.2,1.49-2.2,2.72v59.51c-.08,1.41.54,2.52,1.7,3.2l15.07,8.84.04-61.08c0-1.05.76-2.3,1.55-2.77l5.34-3.16,13.53-8.02c.91-.54,1.84-.43,2.87.19l35.96,21.39c1.34.79,2.69,2.44,2.7,3.96l.07,18.95c.14.72.6,1.25,1.2,1.68l15.7,9.19.02-40.93c0-.58-.32-1.3-.78-1.57l-17.62-10.65-36.64-21.83c-.77-.46-1.4-.7-2.03-.72ZM1237.75-446.99l-.04,60.66c-.14.92-.03,1.63.35,2.38l16.51,9.78.04-38.44,40.04,23.7c2.73,1.62,5.16,4.37,5.16,7.88l.02,72.8c0,2.85-1.63,5.87-3.99,7.3l-33.83,20.5-39.32,23.74.06,23.89,48.4-28.95,35.94-21.54c2.18-1.31,4.28-2.45,6.08-4.14,4.95-4.64,7.12-11.12,7.12-17.88l-.06-80.9c0-8.04-4.66-14.75-11.35-18.71l-55.96-33.15-15.16-8.93ZM1223.24-456.14l-27.12,15.99-29.14,17.25-32.69,19.6c-5.41,3.24-9,10.19-9,16.55l-.09,83.23c0,3.98,1.31,7.62,3.09,11,1.66,3.17,4.08,5.48,7.04,7.45l15.62,9.34,56.76,33.94.02-62.25-16.77-9.93-.09,37.81-40.88-24.55c-2.46-1.48-4.36-4.39-4.36-7.38l-.04-72.51c0-3.58,2.21-6.48,5.14-8.23l72.56-42.8-.06-24.51Z"/>
    <g class="cls-19">
      <rect class="cls-17" x="4.54" y="-690.35" width="2013.59" height="1132.64"/>
    </g>
  </g>
  <g>
    <path d="M884.04-385.46c-.2,0-.48.54-.48.81v60.73c0,1.56-.94,2.82-2.13,3.53l-18.14,10.85c-.88.53-1.5.57-2.42.02l-21.19-12.68-15.66-9.32c-1.25-.87-2.55-2.12-2.55-3.81l-.02-20.85-15.79-9.19c-.18-.11-.61-.16-.79-.13-.14.02-.26.5-.26.85l.02,39.77c0,1.22.93,2.36,1.92,2.96l37.97,22.63,16.31,9.65c.89.53,1.55.56,2.51-.02l34.65-20.74c.92-.55,2.39-1.61,2.39-2.81l.02-61.27c0-.96-.75-1.93-1.48-2.37l-14.01-8.41c-.18-.11-.66-.21-.87-.2ZM811.23-397.83c-.64-.02-1.27.2-2.05.67l-34.42,20.47c-.93.55-2.2,1.49-2.2,2.72v59.51c-.08,1.41.54,2.52,1.7,3.2l15.07,8.84.04-61.08c0-1.05.76-2.3,1.55-2.77l5.34-3.16,13.53-8.02c.91-.54,1.84-.43,2.87.19l35.96,21.39c1.34.79,2.69,2.44,2.7,3.96l.07,18.95c.14.72.6,1.25,1.2,1.68l15.7,9.19.02-40.93c0-.58-.32-1.3-.78-1.57l-17.62-10.65-36.64-21.83c-.77-.46-1.4-.7-2.03-.72ZM851.46-446.99l-.04,60.66c-.14.92-.03,1.63.35,2.38l16.51,9.78.04-38.44,40.04,23.7c2.73,1.62,5.16,4.37,5.16,7.88l.02,72.8c0,2.85-1.63,5.87-3.99,7.3l-33.83,20.5-39.32,23.74.06,23.89,48.4-28.95,35.94-21.54c2.18-1.31,4.28-2.45,6.08-4.14,4.95-4.64,7.12-11.12,7.12-17.88l-.06-80.9c0-8.04-4.66-14.75-11.35-18.71l-55.96-33.15-15.16-8.93ZM836.95-456.14l-27.12,15.99-29.14,17.25-32.69,19.6c-5.41,3.24-9,10.19-9,16.55l-.09,83.23c0,3.98,1.31,7.62,3.09,11,1.66,3.17,4.08,5.48,7.04,7.45l15.62,9.34,56.76,33.94.02-62.25-16.77-9.93-.09,37.81-40.88-24.55c-2.46-1.48-4.36-4.39-4.36-7.38l-.04-72.51c0-3.58,2.21-6.48,5.14-8.23l72.56-42.8-.06-24.51Z"/>
    <g class="cls-14">
      <rect x="-381.74" y="-690.35" width="2013.59" height="1132.64"/>
    </g>
  </g>
  <g>
    <path d="M868.44,46.69c-.14,0-.32.35-.32.54v40.12c0,1.03-.62,1.86-1.4,2.33l-11.98,7.17c-.58.35-.99.38-1.6.01l-14-8.38-10.34-6.15c-.83-.58-1.69-1.4-1.69-2.52v-13.78s-10.44-6.07-10.44-6.07c-.12-.07-.41-.11-.53-.09-.09.02-.17.33-.17.56v26.27c.01.81.62,1.56,1.28,1.95l25.08,14.95,10.77,6.37c.59.35,1.02.37,1.66-.01l22.89-13.7c.61-.36,1.58-1.06,1.58-1.86v-40.47c.01-.63-.48-1.27-.97-1.56l-9.26-5.56c-.12-.07-.44-.14-.57-.13ZM820.35,38.52c-.42-.01-.84.13-1.36.44l-22.74,13.52c-.61.37-1.45.99-1.45,1.8v39.31c-.05.93.36,1.66,1.12,2.11l9.95,5.84.02-40.35c0-.7.5-1.52,1.03-1.83l3.53-2.09,8.94-5.3c.6-.35,1.21-.28,1.89.12l23.75,14.13c.88.52,1.78,1.61,1.78,2.61l.05,12.52c.1.47.4.82.79,1.11l10.37,6.07v-27.04c.01-.39-.2-.86-.5-1.04l-11.64-7.03-24.2-14.42c-.51-.3-.92-.47-1.34-.48ZM846.92,6.04l-.02,40.07c-.09.6-.02,1.08.23,1.58l10.91,6.46.02-25.39,26.45,15.66c1.8,1.07,3.41,2.89,3.41,5.2v48.09c.01,1.88-1.06,3.88-2.63,4.82l-22.35,13.54-25.97,15.68.04,15.78,31.97-19.12,23.74-14.23c1.44-.86,2.83-1.62,4.02-2.74,3.27-3.07,4.71-7.34,4.7-11.81l-.04-53.44c0-5.31-3.08-9.74-7.5-12.36l-36.97-21.9-10.01-5.9ZM837.34,0l-17.91,10.56-19.25,11.39-21.59,12.94c-3.57,2.14-5.94,6.73-5.95,10.93l-.06,54.98c0,2.63.87,5.03,2.04,7.27,1.1,2.09,2.7,3.62,4.65,4.92l10.32,6.17,37.49,22.42v-41.12s-11.06-6.56-11.06-6.56l-.06,24.97-27-16.22c-1.63-.98-2.88-2.9-2.88-4.87l-.02-47.9c0-2.36,1.46-4.28,3.39-5.43l47.93-28.27-.04-16.19Z"/>
    <g class="cls-13">
      <rect x="32.34" y="-154.7" width="1330.06" height="748.16"/>
    </g>
  </g>
  <g>
    <path class="cls-18" d="M497.75-385.46c-.2,0-.48.54-.48.81v60.73c0,1.56-.94,2.82-2.13,3.53l-18.14,10.85c-.88.53-1.5.57-2.42.02l-21.19-12.68-15.66-9.32c-1.25-.87-2.55-2.12-2.55-3.81l-.02-20.85-15.79-9.19c-.18-.11-.61-.16-.79-.13-.14.02-.26.5-.26.85l.02,39.77c0,1.22.93,2.36,1.92,2.96l37.97,22.63,16.31,9.65c.89.53,1.55.56,2.51-.02l34.65-20.74c.92-.55,2.39-1.61,2.39-2.81l.02-61.27c0-.96-.75-1.93-1.48-2.37l-14.01-8.41c-.18-.11-.66-.21-.87-.2ZM424.95-397.83c-.64-.02-1.27.2-2.05.67l-34.42,20.47c-.93.55-2.2,1.49-2.2,2.72v59.51c-.08,1.41.54,2.52,1.7,3.2l15.07,8.84.04-61.08c0-1.05.76-2.3,1.55-2.77l5.34-3.16,13.53-8.02c.91-.54,1.84-.43,2.87.19l35.96,21.39c1.34.79,2.69,2.44,2.7,3.96l.07,18.95c.14.72.6,1.25,1.2,1.68l15.7,9.19.02-40.93c0-.58-.32-1.3-.78-1.57l-17.62-10.65-36.64-21.83c-.77-.46-1.4-.7-2.03-.72ZM465.18-446.99l-.04,60.66c-.14.92-.03,1.63.35,2.38l16.51,9.78.04-38.44,40.04,23.7c2.73,1.62,5.16,4.37,5.16,7.88l.02,72.8c0,2.85-1.63,5.87-3.99,7.3l-33.83,20.5-39.32,23.74.06,23.89,48.4-28.95,35.94-21.54c2.18-1.31,4.28-2.45,6.08-4.14,4.95-4.64,7.12-11.12,7.12-17.88l-.06-80.9c0-8.04-4.66-14.75-11.35-18.71l-55.96-33.15-15.16-8.93ZM450.66-456.14l-27.12,15.99-29.14,17.25-32.69,19.6c-5.41,3.24-9,10.19-9,16.55l-.09,83.23c0,3.98,1.31,7.62,3.09,11,1.66,3.17,4.08,5.48,7.04,7.45l15.62,9.34,56.76,33.94.02-62.25-16.77-9.93-.09,37.81-40.88-24.55c-2.46-1.48-4.36-4.39-4.36-7.38l-.04-72.51c0-3.58,2.21-6.48,5.14-8.23l72.56-42.8-.06-24.51Z"/>
    <g class="cls-15">
      <rect class="cls-18" x="-768.03" y="-690.35" width="2013.59" height="1132.64"/>
    </g>
  </g>
  <g>
    <path class="cls-18" d="M351.08-98.24c-.06,0-.14.16-.14.24v18.07c0,.46-.28.84-.63,1.05l-5.4,3.23c-.26.16-.45.17-.72,0l-6.3-3.77-4.66-2.77c-.37-.26-.76-.63-.76-1.13v-6.21s-4.7-2.73-4.7-2.73c-.05-.03-.18-.05-.24-.04-.04,0-.08.15-.08.25v11.83c0,.36.28.7.58.88l11.3,6.73,4.85,2.87c.27.16.46.17.75,0l10.31-6.17c.27-.16.71-.48.71-.84v-18.23c0-.29-.22-.57-.43-.7l-4.17-2.5c-.05-.03-.2-.06-.26-.06ZM329.42-101.92c-.19,0-.38.06-.61.2l-10.24,6.09c-.28.16-.65.44-.65.81v17.71c-.02.42.16.75.51.95l4.48,2.63v-18.18c.01-.31.24-.68.47-.83l1.59-.94,4.03-2.39c.27-.16.55-.13.85.06l10.7,6.36c.4.24.8.73.8,1.18l.02,5.64c.04.21.18.37.36.5l4.67,2.73v-12.18c0-.17-.09-.39-.23-.47l-5.24-3.17-10.9-6.5c-.23-.14-.42-.21-.61-.21ZM341.39-116.54v18.05c-.05.27-.02.48.09.71l4.91,2.91v-11.44s11.93,7.05,11.93,7.05c.81.48,1.53,1.3,1.53,2.34v21.66c0,.85-.48,1.75-1.18,2.17l-10.07,6.1-11.7,7.06.02,7.11,14.4-8.61,10.69-6.41c.65-.39,1.27-.73,1.81-1.23,1.47-1.38,2.12-3.31,2.12-5.32l-.02-24.07c0-2.39-1.39-4.39-3.38-5.57l-16.65-9.86-4.51-2.66ZM337.07-119.27l-8.07,4.76-8.67,5.13-9.73,5.83c-1.61.96-2.68,3.03-2.68,4.92l-.03,24.77c0,1.19.39,2.27.92,3.27.49.94,1.21,1.63,2.1,2.22l4.65,2.78,16.89,10.1v-18.52s-4.98-2.95-4.98-2.95l-.03,11.25-12.16-7.31c-.73-.44-1.3-1.31-1.3-2.19v-21.57c-.01-1.07.65-1.93,1.52-2.45l21.59-12.73-.02-7.29Z"/>
    <g class="cls-16">
      <rect class="cls-18" x="-25.55" y="-188.95" width="599.13" height="337.01"/>
    </g>
  </g>
  <g>
    <path class="cls-18" d="M482.15,46.69c-.14,0-.32.35-.32.54v40.12c0,1.03-.62,1.86-1.4,2.33l-11.98,7.17c-.58.35-.99.38-1.6.01l-14-8.38-10.34-6.15c-.83-.58-1.69-1.4-1.69-2.52v-13.78s-10.44-6.07-10.44-6.07c-.12-.07-.41-.11-.53-.09-.09.02-.17.33-.17.56v26.27c.01.81.62,1.56,1.28,1.95l25.08,14.95,10.77,6.37c.59.35,1.02.37,1.66-.01l22.89-13.7c.61-.36,1.58-1.06,1.58-1.86v-40.47c.01-.63-.48-1.27-.97-1.56l-9.26-5.56c-.12-.07-.44-.14-.57-.13ZM434.06,38.52c-.42-.01-.84.13-1.36.44l-22.74,13.52c-.61.37-1.45.99-1.45,1.8v39.31c-.05.93.36,1.66,1.12,2.11l9.95,5.84.02-40.35c0-.7.5-1.52,1.03-1.83l3.53-2.09,8.94-5.3c.6-.35,1.21-.28,1.89.12l23.75,14.13c.88.52,1.78,1.61,1.78,2.61l.05,12.52c.1.47.4.82.79,1.11l10.37,6.07v-27.04c.01-.39-.2-.86-.5-1.04l-11.64-7.03-24.2-14.42c-.51-.3-.92-.47-1.34-.48ZM460.63,6.04l-.02,40.07c-.09.6-.02,1.08.23,1.58l10.91,6.46.02-25.39,26.45,15.66c1.8,1.07,3.41,2.89,3.41,5.2v48.09c.01,1.88-1.06,3.88-2.63,4.82l-22.35,13.54-25.97,15.68.04,15.78,31.97-19.12,23.74-14.23c1.44-.86,2.83-1.62,4.02-2.74,3.27-3.07,4.71-7.34,4.7-11.81l-.04-53.44c0-5.31-3.08-9.74-7.5-12.36l-36.97-21.9-10.01-5.9ZM451.05,0l-17.91,10.56-19.25,11.39-21.59,12.94c-3.57,2.14-5.94,6.73-5.95,10.93l-.06,54.98c0,2.63.87,5.03,2.04,7.27,1.1,2.09,2.7,3.62,4.65,4.92l10.32,6.17,37.49,22.42v-41.12s-11.06-6.56-11.06-6.56l-.06,24.97-27-16.22c-1.63-.98-2.88-2.9-2.88-4.87l-.02-47.9c0-2.36,1.46-4.28,3.39-5.43l47.93-28.27-.04-16.19Z"/>
    <g class="cls-10">
      <rect class="cls-18" x="-353.95" y="-154.7" width="1330.06" height="748.16"/>
    </g>
  </g>
  <g>
    <path class="cls-8" d="M112.02-385.46c-.2,0-.48.54-.48.81v60.73c0,1.56-.94,2.82-2.13,3.53l-18.14,10.85c-.88.53-1.5.57-2.42.02l-21.19-12.68-15.66-9.32c-1.25-.87-2.55-2.12-2.55-3.81l-.02-20.85-15.79-9.19c-.18-.11-.61-.16-.79-.13-.14.02-.26.5-.26.85l.02,39.77c0,1.22.93,2.36,1.92,2.96l37.97,22.63,16.31,9.65c.89.53,1.55.56,2.51-.02l34.65-20.74c.92-.55,2.39-1.61,2.39-2.81l.02-61.27c0-.96-.75-1.93-1.48-2.37l-14.01-8.41c-.18-.11-.66-.21-.87-.2ZM39.21-397.83c-.64-.02-1.27.2-2.05.67l-34.42,20.47c-.93.55-2.2,1.49-2.2,2.72v59.51c-.08,1.41.54,2.52,1.7,3.2l15.07,8.84.04-61.08c0-1.05.76-2.3,1.55-2.77l5.34-3.16,13.53-8.02c.91-.54,1.84-.43,2.87.19l35.96,21.39c1.34.79,2.69,2.44,2.7,3.96l.07,18.95c.14.72.6,1.25,1.2,1.68l15.7,9.19.02-40.93c0-.58-.32-1.3-.78-1.57l-17.62-10.65-36.64-21.83c-.77-.46-1.4-.7-2.03-.72ZM79.44-446.99l-.04,60.66c-.14.92-.03,1.63.35,2.38l16.51,9.78.04-38.44,40.04,23.7c2.73,1.62,5.16,4.37,5.16,7.88l.02,72.8c0,2.85-1.63,5.87-3.99,7.3l-33.83,20.5-39.32,23.74.06,23.89,48.4-28.95,35.94-21.54c2.18-1.31,4.28-2.45,6.08-4.14,4.95-4.64,7.12-11.12,7.12-17.88l-.06-80.9c0-8.04-4.66-14.75-11.35-18.71l-55.96-33.15-15.16-8.93ZM64.93-456.14l-27.12,15.99-29.14,17.25-32.69,19.6c-5.41,3.24-9,10.19-9,16.55l-.09,83.23c0,3.98,1.31,7.62,3.09,11,1.66,3.17,4.08,5.48,7.04,7.45l15.62,9.34,56.76,33.94.02-62.25-16.77-9.93-.09,37.81-40.88-24.55c-2.46-1.48-4.36-4.39-4.36-7.38l-.04-72.51c0-3.58,2.21-6.48,5.14-8.23l72.56-42.8-.06-24.51Z"/>
    <g class="cls-12">
      <rect class="cls-7" x="-1153.77" y="-690.35" width="2013.59" height="1132.64"/>
    </g>
  </g>
  <g>
    <path class="cls-6" d="M-35.21-98.24c-.06,0-.14.16-.14.24v18.07c0,.46-.28.84-.63,1.05l-5.4,3.23c-.26.16-.45.17-.72,0l-6.3-3.77-4.66-2.77c-.37-.26-.76-.63-.76-1.13v-6.21s-4.7-2.73-4.7-2.73c-.05-.03-.18-.05-.24-.04-.04,0-.08.15-.08.25v11.83c0,.36.28.7.58.88l11.3,6.73,4.85,2.87c.27.16.46.17.75,0l10.31-6.17c.27-.16.71-.48.71-.84v-18.23c0-.29-.22-.57-.43-.7l-4.17-2.5c-.05-.03-.2-.06-.26-.06ZM-56.87-101.92c-.19,0-.38.06-.61.2l-10.24,6.09c-.28.16-.65.44-.65.81v17.71c-.02.42.16.75.51.95l4.48,2.63v-18.18c.01-.31.24-.68.47-.83l1.59-.94,4.03-2.39c.27-.16.55-.13.85.06l10.7,6.36c.4.24.8.73.8,1.18l.02,5.64c.04.21.18.37.36.5l4.67,2.73v-12.18c0-.17-.09-.39-.23-.47l-5.24-3.17-10.9-6.5c-.23-.14-.42-.21-.61-.21ZM-44.9-116.54v18.05c-.05.27-.02.48.09.71l4.91,2.91v-11.44s11.93,7.05,11.93,7.05c.81.48,1.53,1.3,1.53,2.34v21.66c0,.85-.48,1.75-1.18,2.17l-10.07,6.1-11.7,7.06.02,7.11,14.4-8.61,10.69-6.41c.65-.39,1.27-.73,1.81-1.23,1.47-1.38,2.12-3.31,2.12-5.32l-.02-24.07c0-2.39-1.39-4.39-3.38-5.57l-16.65-9.86-4.51-2.66ZM-49.22-119.27l-8.07,4.76-8.67,5.13-9.73,5.83c-1.61.96-2.68,3.03-2.68,4.92l-.03,24.77c0,1.19.39,2.27.92,3.27.49.94,1.21,1.63,2.1,2.22l4.65,2.78,16.89,10.1v-18.52s-4.98-2.95-4.98-2.95l-.03,11.25-12.16-7.31c-.73-.44-1.3-1.31-1.3-2.19v-21.57c-.01-1.07.65-1.93,1.52-2.45l21.59-12.73-.02-7.29Z"/>
    <g class="cls-11">
      <rect class="cls-3" x="-411.83" y="-188.95" width="599.13" height="337.01"/>
    </g>
  </g>
  <g>
    <path class="cls-2" d="M95.86,46.69c-.14,0-.32.35-.32.54v40.12c0,1.03-.62,1.86-1.4,2.33l-11.98,7.17c-.58.35-.99.38-1.6.01l-14-8.38-10.34-6.15c-.83-.58-1.69-1.4-1.69-2.52v-13.78s-10.44-6.07-10.44-6.07c-.12-.07-.41-.11-.53-.09-.09.02-.17.33-.17.56v26.27c.01.81.62,1.56,1.28,1.95l25.08,14.95,10.77,6.37c.59.35,1.02.37,1.66-.01l22.89-13.7c.61-.36,1.58-1.06,1.58-1.86v-40.47c.01-.63-.48-1.27-.97-1.56l-9.26-5.56c-.12-.07-.44-.14-.57-.13ZM47.77,38.52c-.42-.01-.84.13-1.36.44l-22.74,13.52c-.61.37-1.45.99-1.45,1.8v39.31c-.05.93.36,1.66,1.12,2.11l9.95,5.84.02-40.35c0-.7.5-1.52,1.03-1.83l3.53-2.09,8.94-5.3c.6-.35,1.21-.28,1.89.12l23.75,14.13c.88.52,1.78,1.61,1.78,2.61l.05,12.52c.1.47.4.82.79,1.11l10.37,6.07v-27.04c.01-.39-.2-.86-.5-1.04l-11.64-7.03-24.2-14.42c-.51-.3-.92-.47-1.34-.48ZM74.35,6.04l-.02,40.07c-.09.6-.02,1.08.23,1.58l10.91,6.46.02-25.39,26.45,15.66c1.8,1.07,3.41,2.89,3.41,5.2v48.09c.01,1.88-1.06,3.88-2.63,4.82l-22.35,13.54-25.97,15.68.04,15.78,31.97-19.12,23.74-14.23c1.44-.86,2.83-1.62,4.02-2.74,3.27-3.07,4.71-7.34,4.7-11.81l-.04-53.44c0-5.31-3.08-9.74-7.5-12.36l-36.97-21.9-10.01-5.9ZM64.76,0l-17.91,10.56-19.25,11.39-21.59,12.94C2.44,37.04.07,41.63.06,45.83L0,100.81c0,2.63.87,5.03,2.04,7.27,1.1,2.09,2.7,3.62,4.65,4.92l10.32,6.17,37.49,22.42v-41.12s-11.06-6.56-11.06-6.56l-.06,24.97-27-16.22c-1.63-.98-2.88-2.9-2.88-4.87l-.02-47.9c0-2.36,1.46-4.28,3.39-5.43l47.93-28.27-.04-16.19Z"/>
    <g class="cls-9">
      <rect class="cls-5" x="-740.24" y="-154.7" width="1330.06" height="748.16"/>
    </g>
  </g>
</svg>
