<?xml version="1.0" encoding="UTF-8"?>
<svg id="Layer_1" data-name="Layer 1" xmlns="http://www.w3.org/2000/svg" xmlns:xlink="http://www.w3.org/1999/xlink" viewBox="0 0 285.64 66.46">
  <defs>
    <style>
      .cls-1 {
        fill: url(#radial-gradient-7);
      }

      .cls-2 {
        fill: url(#radial-gradient-6);
      }

      .cls-3 {
        fill: url(#radial-gradient-5);
      }

      .cls-4 {
        fill: url(#radial-gradient-4);
      }

      .cls-5 {
        fill: url(#radial-gradient-8);
      }

      .cls-6 {
        fill: url(#radial-gradient-3);
      }

      .cls-7 {
        fill: url(#radial-gradient-2);
      }

      .cls-8 {
        fill: url(#radial-gradient);
      }

      .cls-9 {
        clip-path: url(#clippath-16);
      }

      .cls-10 {
        clip-path: url(#clippath-10);
      }

      .cls-11 {
        clip-path: url(#clippath-14);
      }

      .cls-12 {
        clip-path: url(#clippath-12);
      }

      .cls-13 {
        clip-path: url(#clippath-4);
      }

      .cls-14 {
        clip-path: url(#clippath-2);
      }

      .cls-15 {
        clip-path: url(#clippath-6);
      }

      .cls-16 {
        clip-path: url(#clippath-8);
      }

      .cls-17 {
        fill: #fff;
      }

      .cls-18 {
        fill: #3c82f7;
      }

      .cls-19 {
        fill: #41424e;
      }

      .cls-20 {
        clip-path: url(#clippath);
      }
    </style>
    <clipPath id="clippath">
      <path class="cls-17" d="M1348.72-266.2c-.2,0-.48.54-.48.81v60.73c0,1.56-.94,2.82-2.13,3.53l-18.14,10.85c-.88.53-1.5.57-2.42.02l-21.19-12.68-15.66-9.32c-1.25-.87-2.55-2.12-2.55-3.81l-.02-20.85-15.79-9.19c-.18-.11-.61-.16-.79-.13-.14.02-.26.5-.26.85l.02,39.77c0,1.22.93,2.36,1.92,2.96l37.97,22.63,16.31,9.65c.89.53,1.55.56,2.51-.02l34.65-20.74c.92-.55,2.39-1.61,2.39-2.81l.02-61.27c0-.96-.75-1.93-1.48-2.37l-14.01-8.41c-.18-.11-.66-.21-.87-.2ZM1275.91-278.56c-.64-.02-1.27.2-2.05.67l-34.42,20.47c-.93.55-2.2,1.49-2.2,2.72v59.51c-.08,1.41.54,2.52,1.7,3.2l15.07,8.84.04-61.08c0-1.05.76-2.3,1.55-2.77l5.34-3.16,13.53-8.02c.91-.54,1.84-.43,2.87.19l35.96,21.39c1.34.79,2.69,2.44,2.7,3.96l.07,18.95c.14.72.6,1.25,1.2,1.68l15.7,9.19.02-40.93c0-.58-.32-1.3-.78-1.57l-17.62-10.65-36.64-21.83c-.77-.46-1.4-.7-2.03-.72ZM1316.14-327.72l-.04,60.66c-.14.92-.03,1.63.35,2.38l16.51,9.78.04-38.44,40.04,23.7c2.73,1.62,5.16,4.37,5.16,7.88l.02,72.8c0,2.85-1.63,5.87-3.99,7.3l-33.83,20.5-39.32,23.74.06,23.89,48.4-28.95,35.94-21.54c2.18-1.31,4.28-2.45,6.08-4.14,4.95-4.64,7.12-11.12,7.12-17.88l-.06-80.9c0-8.04-4.66-14.75-11.35-18.71l-55.96-33.15-15.16-8.93ZM1301.63-336.87l-27.12,15.99-29.14,17.25-32.69,19.6c-5.41,3.24-9,10.19-9,16.55l-.09,83.23c0,3.98,1.31,7.62,3.09,11,1.66,3.17,4.08,5.48,7.04,7.45l15.62,9.34,56.76,33.94.02-62.25-16.77-9.93-.09,37.81-40.88-24.55c-2.46-1.48-4.36-4.39-4.36-7.38l-.04-72.51c0-3.58,2.21-6.48,5.14-8.23l72.56-42.8-.06-24.51Z"/>
    </clipPath>
    <clipPath id="clippath-2">
      <path d="M962.43-266.2c-.2,0-.48.54-.48.81v60.73c0,1.56-.94,2.82-2.13,3.53l-18.14,10.85c-.88.53-1.5.57-2.42.02l-21.19-12.68-15.66-9.32c-1.25-.87-2.55-2.12-2.55-3.81l-.02-20.85-15.79-9.19c-.18-.11-.61-.16-.79-.13-.14.02-.26.5-.26.85l.02,39.77c0,1.22.93,2.36,1.92,2.96l37.97,22.63,16.31,9.65c.89.53,1.55.56,2.51-.02l34.65-20.74c.92-.55,2.39-1.61,2.39-2.81l.02-61.27c0-.96-.75-1.93-1.48-2.37l-14.01-8.41c-.18-.11-.66-.21-.87-.2ZM889.62-278.56c-.64-.02-1.27.2-2.05.67l-34.42,20.47c-.93.55-2.2,1.49-2.2,2.72v59.51c-.08,1.41.54,2.52,1.7,3.2l15.07,8.84.04-61.08c0-1.05.76-2.3,1.55-2.77l5.34-3.16,13.53-8.02c.91-.54,1.84-.43,2.87.19l35.96,21.39c1.34.79,2.69,2.44,2.7,3.96l.07,18.95c.14.72.6,1.25,1.2,1.68l15.7,9.19.02-40.93c0-.58-.32-1.3-.78-1.57l-17.62-10.65-36.64-21.83c-.77-.46-1.4-.7-2.03-.72ZM929.85-327.72l-.04,60.66c-.14.92-.03,1.63.35,2.38l16.51,9.78.04-38.44,40.04,23.7c2.73,1.62,5.16,4.37,5.16,7.88l.02,72.8c0,2.85-1.63,5.87-3.99,7.3l-33.83,20.5-39.32,23.74.06,23.89,48.4-28.95,35.94-21.54c2.18-1.31,4.28-2.45,6.08-4.14,4.95-4.64,7.12-11.12,7.12-17.88l-.06-80.9c0-8.04-4.66-14.75-11.35-18.71l-55.96-33.15-15.16-8.93ZM915.34-336.87l-27.12,15.99-29.14,17.25-32.69,19.6c-5.41,3.24-9,10.19-9,16.55l-.09,83.23c0,3.98,1.31,7.62,3.09,11,1.66,3.17,4.08,5.48,7.04,7.45l15.62,9.34,56.76,33.94.02-62.25-16.77-9.93-.09,37.81-40.88-24.55c-2.46-1.48-4.36-4.39-4.36-7.38l-.04-72.51c0-3.58,2.21-6.48,5.14-8.23l72.56-42.8-.06-24.51Z"/>
    </clipPath>
    <clipPath id="clippath-4">
      <path d="M946.83,165.95c-.14,0-.32.35-.32.54v40.12c0,1.03-.62,1.86-1.4,2.33l-11.98,7.17c-.58.35-.99.38-1.6.01l-14-8.38-10.34-6.15c-.83-.58-1.69-1.4-1.69-2.52v-13.78s-10.44-6.07-10.44-6.07c-.12-.07-.41-.11-.53-.09-.09.02-.17.33-.17.56v26.27c.01.81.62,1.56,1.28,1.95l25.08,14.95,10.77,6.37c.59.35,1.02.37,1.66-.01l22.89-13.7c.61-.36,1.58-1.06,1.58-1.86v-40.47c.01-.63-.48-1.27-.97-1.56l-9.26-5.56c-.12-.07-.44-.14-.57-.13ZM898.74,157.78c-.42-.01-.84.13-1.36.44l-22.74,13.52c-.61.37-1.45.99-1.45,1.8v39.31c-.05.93.36,1.66,1.12,2.11l9.95,5.84.02-40.35c0-.7.5-1.52,1.03-1.83l3.53-2.09,8.94-5.3c.6-.35,1.21-.28,1.89.12l23.75,14.13c.88.52,1.78,1.61,1.78,2.61l.05,12.52c.1.47.4.82.79,1.11l10.37,6.07v-27.04c.01-.39-.2-.86-.5-1.04l-11.64-7.03-24.2-14.42c-.51-.3-.92-.47-1.34-.48ZM925.31,125.31l-.02,40.07c-.09.6-.02,1.08.23,1.58l10.91,6.46.02-25.39,26.45,15.66c1.8,1.07,3.41,2.89,3.41,5.2v48.09c.01,1.88-1.06,3.88-2.63,4.82l-22.35,13.54-25.97,15.68.04,15.78,31.97-19.12,23.74-14.23c1.44-.86,2.83-1.62,4.02-2.74,3.27-3.07,4.71-7.34,4.7-11.81l-.04-53.44c0-5.31-3.08-9.74-7.5-12.36l-36.97-21.9-10.01-5.9ZM915.72,119.27l-17.91,10.56-19.25,11.39-21.59,12.94c-3.57,2.14-5.94,6.73-5.95,10.93l-.06,54.98c0,2.63.87,5.03,2.04,7.27,1.1,2.09,2.7,3.62,4.65,4.92l10.32,6.17,37.49,22.42v-41.12s-11.06-6.56-11.06-6.56l-.06,24.97-27-16.22c-1.63-.98-2.88-2.9-2.88-4.87l-.02-47.9c0-2.36,1.46-4.28,3.39-5.43l47.93-28.27-.04-16.19Z"/>
    </clipPath>
    <clipPath id="clippath-6">
      <path class="cls-18" d="M576.14-266.2c-.2,0-.48.54-.48.81v60.73c0,1.56-.94,2.82-2.13,3.53l-18.14,10.85c-.88.53-1.5.57-2.42.02l-21.19-12.68-15.66-9.32c-1.25-.87-2.55-2.12-2.55-3.81l-.02-20.85-15.79-9.19c-.18-.11-.61-.16-.79-.13-.14.02-.26.5-.26.85l.02,39.77c0,1.22.93,2.36,1.92,2.96l37.97,22.63,16.31,9.65c.89.53,1.55.56,2.51-.02l34.65-20.74c.92-.55,2.39-1.61,2.39-2.81l.02-61.27c0-.96-.75-1.93-1.48-2.37l-14.01-8.41c-.18-.11-.66-.21-.87-.2ZM503.33-278.56c-.64-.02-1.27.2-2.05.67l-34.42,20.47c-.93.55-2.2,1.49-2.2,2.72v59.51c-.08,1.41.54,2.52,1.7,3.2l15.07,8.84.04-61.08c0-1.05.76-2.3,1.55-2.77l5.34-3.16,13.53-8.02c.91-.54,1.84-.43,2.87.19l35.96,21.39c1.34.79,2.69,2.44,2.7,3.96l.07,18.95c.14.72.6,1.25,1.2,1.68l15.7,9.19.02-40.93c0-.58-.32-1.3-.78-1.57l-17.62-10.65-36.64-21.83c-.77-.46-1.4-.7-2.03-.72ZM543.56-327.72l-.04,60.66c-.14.92-.03,1.63.35,2.38l16.51,9.78.04-38.44,40.04,23.7c2.73,1.62,5.16,4.37,5.16,7.88l.02,72.8c0,2.85-1.63,5.87-3.99,7.3l-33.83,20.5-39.32,23.74.06,23.89,48.4-28.95,35.94-21.54c2.18-1.31,4.28-2.45,6.08-4.14,4.95-4.64,7.12-11.12,7.12-17.88l-.06-80.9c0-8.04-4.66-14.75-11.35-18.71l-55.96-33.15-15.16-8.93ZM529.05-336.87l-27.12,15.99-29.14,17.25-32.69,19.6c-5.41,3.24-9,10.19-9,16.55l-.09,83.23c0,3.98,1.31,7.62,3.09,11,1.66,3.17,4.08,5.48,7.04,7.45l15.62,9.34,56.76,33.94.02-62.25-16.77-9.93-.09,37.81-40.88-24.55c-2.46-1.48-4.36-4.39-4.36-7.38l-.04-72.51c0-3.58,2.21-6.48,5.14-8.23l72.56-42.8-.06-24.51Z"/>
    </clipPath>
    <clipPath id="clippath-8">
      <path class="cls-18" d="M429.47,21.03c-.06,0-.14.16-.14.24v18.07c0,.46-.28.84-.63,1.05l-5.4,3.23c-.26.16-.45.17-.72,0l-6.3-3.77-4.66-2.77c-.37-.26-.76-.63-.76-1.13v-6.21s-4.7-2.73-4.7-2.73c-.05-.03-.18-.05-.24-.04-.04,0-.08.15-.08.25v11.83c0,.36.28.7.58.88l11.3,6.73,4.85,2.87c.27.16.46.17.75,0l10.31-6.17c.27-.16.71-.48.71-.84v-18.23c0-.29-.22-.57-.43-.7l-4.17-2.5c-.05-.03-.2-.06-.26-.06ZM407.81,17.35c-.19,0-.38.06-.61.2l-10.24,6.09c-.28.16-.65.44-.65.81v17.71c-.02.42.16.75.51.95l4.48,2.63v-18.18c.01-.31.24-.68.47-.83l1.59-.94,4.03-2.39c.27-.16.55-.13.85.06l10.7,6.36c.4.24.8.73.8,1.18l.02,5.64c.04.21.18.37.36.5l4.67,2.73v-12.18c0-.17-.09-.39-.23-.47l-5.24-3.17-10.9-6.5c-.23-.14-.42-.21-.61-.21ZM419.78,2.72v18.05c-.05.27-.02.48.09.71l4.91,2.91v-11.44s11.93,7.05,11.93,7.05c.81.48,1.53,1.3,1.53,2.34v21.66c0,.85-.48,1.75-1.18,2.17l-10.07,6.1-11.7,7.06.02,7.11,14.4-8.61,10.69-6.41c.65-.39,1.27-.73,1.81-1.23,1.47-1.38,2.12-3.31,2.12-5.32l-.02-24.07c0-2.39-1.39-4.39-3.38-5.57l-16.65-9.86-4.51-2.66ZM415.46,0l-8.07,4.76-8.67,5.13-9.73,5.83c-1.61.96-2.68,3.03-2.68,4.92l-.03,24.77c0,1.19.39,2.27.92,3.27.49.94,1.21,1.63,2.1,2.22l4.65,2.78,16.89,10.1v-18.52s-4.98-2.95-4.98-2.95l-.03,11.25-12.16-7.31c-.73-.44-1.3-1.31-1.3-2.19v-21.57c-.01-1.07.65-1.93,1.52-2.45l21.59-12.73-.02-7.29Z"/>
    </clipPath>
    <clipPath id="clippath-10">
      <path class="cls-18" d="M560.54,165.95c-.14,0-.32.35-.32.54v40.12c0,1.03-.62,1.86-1.4,2.33l-11.98,7.17c-.58.35-.99.38-1.6.01l-14-8.38-10.34-6.15c-.83-.58-1.69-1.4-1.69-2.52v-13.78s-10.44-6.07-10.44-6.07c-.12-.07-.41-.11-.53-.09-.09.02-.17.33-.17.56v26.27c.01.81.62,1.56,1.28,1.95l25.08,14.95,10.77,6.37c.59.35,1.02.37,1.66-.01l22.89-13.7c.61-.36,1.58-1.06,1.58-1.86v-40.47c.01-.63-.48-1.27-.97-1.56l-9.26-5.56c-.12-.07-.44-.14-.57-.13ZM512.45,157.78c-.42-.01-.84.13-1.36.44l-22.74,13.52c-.61.37-1.45.99-1.45,1.8v39.31c-.05.93.36,1.66,1.12,2.11l9.95,5.84.02-40.35c0-.7.5-1.52,1.03-1.83l3.53-2.09,8.94-5.3c.6-.35,1.21-.28,1.89.12l23.75,14.13c.88.52,1.78,1.61,1.78,2.61l.05,12.52c.1.47.4.82.79,1.11l10.37,6.07v-27.04c.01-.39-.2-.86-.5-1.04l-11.64-7.03-24.2-14.42c-.51-.3-.92-.47-1.34-.48ZM539.02,125.31l-.02,40.07c-.09.6-.02,1.08.23,1.58l10.91,6.46.02-25.39,26.45,15.66c1.8,1.07,3.41,2.89,3.41,5.2v48.09c.01,1.88-1.06,3.88-2.63,4.82l-22.35,13.54-25.97,15.68.04,15.78,31.97-19.12,23.74-14.23c1.44-.86,2.83-1.62,4.02-2.74,3.27-3.07,4.71-7.34,4.7-11.81l-.04-53.44c0-5.31-3.08-9.74-7.5-12.36l-36.97-21.9-10.01-5.9ZM529.44,119.27l-17.91,10.56-19.25,11.39-21.59,12.94c-3.57,2.14-5.94,6.73-5.95,10.93l-.06,54.98c0,2.63.87,5.03,2.04,7.27,1.1,2.09,2.7,3.62,4.65,4.92l10.32,6.17,37.49,22.42v-41.12s-11.06-6.56-11.06-6.56l-.06,24.97-27-16.22c-1.63-.98-2.88-2.9-2.88-4.87l-.02-47.9c0-2.36,1.46-4.28,3.39-5.43l47.93-28.27-.04-16.19Z"/>
    </clipPath>
    <radialGradient id="radial-gradient" cx="142.82" cy="-225.2" fx="142.82" fy="-225.2" r="104.85" gradientUnits="userSpaceOnUse">
      <stop offset="0" stop-color="#67e8f9"/>
      <stop offset="1" stop-color="#1b41b1"/>
    </radialGradient>
    <clipPath id="clippath-12">
      <path class="cls-8" d="M190.41-266.2c-.2,0-.48.54-.48.81v60.73c0,1.56-.94,2.82-2.13,3.53l-18.14,10.85c-.88.53-1.5.57-2.42.02l-21.19-12.68-15.66-9.32c-1.25-.87-2.55-2.12-2.55-3.81l-.02-20.85-15.79-9.19c-.18-.11-.61-.16-.79-.13-.14.02-.26.5-.26.85l.02,39.77c0,1.22.93,2.36,1.92,2.96l37.97,22.63,16.31,9.65c.89.53,1.55.56,2.51-.02l34.65-20.74c.92-.55,2.39-1.61,2.39-2.81l.02-61.27c0-.96-.75-1.93-1.48-2.37l-14.01-8.41c-.18-.11-.66-.21-.87-.2ZM117.6-278.56c-.64-.02-1.27.2-2.05.67l-34.42,20.47c-.93.55-2.2,1.49-2.2,2.72v59.51c-.08,1.41.54,2.52,1.7,3.2l15.07,8.84.04-61.08c0-1.05.76-2.3,1.55-2.77l5.34-3.16,13.53-8.02c.91-.54,1.84-.43,2.87.19l35.96,21.39c1.34.79,2.69,2.44,2.7,3.96l.07,18.95c.14.72.6,1.25,1.2,1.68l15.7,9.19.02-40.93c0-.58-.32-1.3-.78-1.57l-17.62-10.65-36.64-21.83c-.77-.46-1.4-.7-2.03-.72ZM157.83-327.72l-.04,60.66c-.14.92-.03,1.63.35,2.38l16.51,9.78.04-38.44,40.04,23.7c2.73,1.62,5.16,4.37,5.16,7.88l.02,72.8c0,2.85-1.63,5.87-3.99,7.3l-33.83,20.5-39.32,23.74.06,23.89,48.4-28.95,35.94-21.54c2.18-1.31,4.28-2.45,6.08-4.14,4.95-4.64,7.12-11.12,7.12-17.88l-.06-80.9c0-8.04-4.66-14.75-11.35-18.71l-55.96-33.15-15.16-8.93ZM143.32-336.87l-27.12,15.99-29.14,17.25-32.69,19.6c-5.41,3.24-9,10.19-9,16.55l-.09,83.23c0,3.98,1.31,7.62,3.09,11,1.66,3.17,4.08,5.48,7.04,7.45l15.62,9.34,56.76,33.94.02-62.25-16.77-9.93-.09,37.81-40.88-24.55c-2.46-1.48-4.36-4.39-4.36-7.38l-.04-72.51c0-3.58,2.21-6.48,5.14-8.23l72.56-42.8-.06-24.51Z"/>
    </clipPath>
    <radialGradient id="radial-gradient-2" cx="196.86" cy="-144.6" fx="196.86" fy="-144.6" r="222.44" gradientUnits="userSpaceOnUse">
      <stop offset=".13" stop-color="#67e8f9"/>
      <stop offset=".65" stop-color="#3c82f7"/>
      <stop offset="1" stop-color="#1b41b1"/>
    </radialGradient>
    <radialGradient id="radial-gradient-3" cx="29.02" cy="33.23" fx="29.02" fy="33.23" r="31.2" xlink:href="#radial-gradient"/>
    <radialGradient id="radial-gradient-4" cx="29.02" cy="33.23" fx="29.02" fy="33.23" r="31.2" xlink:href="#radial-gradient"/>
    <clipPath id="clippath-14">
      <path class="cls-4" d="M43.18,21.03c-.06,0-.14.16-.14.24v18.07c0,.46-.28.84-.63,1.05l-5.4,3.23c-.26.16-.45.17-.72,0l-6.3-3.77-4.66-2.77c-.37-.26-.76-.63-.76-1.13v-6.21s-4.7-2.73-4.7-2.73c-.05-.03-.18-.05-.24-.04-.04,0-.08.15-.08.25v11.83c0,.36.28.7.58.88l11.3,6.73,4.85,2.87c.27.16.46.17.75,0l10.31-6.17c.27-.16.71-.48.71-.84v-18.23c0-.29-.22-.57-.43-.7l-4.17-2.5c-.05-.03-.2-.06-.26-.06ZM21.52,17.35c-.19,0-.38.06-.61.2l-10.24,6.09c-.28.16-.65.44-.65.81v17.71c-.02.42.16.75.51.95l4.48,2.63v-18.18c.01-.31.24-.68.47-.83l1.59-.94,4.03-2.39c.27-.16.55-.13.85.06l10.7,6.36c.4.24.8.73.8,1.18l.02,5.64c.04.21.18.37.36.5l4.67,2.73v-12.18c0-.17-.09-.39-.23-.47l-5.24-3.17-10.9-6.5c-.23-.14-.42-.21-.61-.21ZM33.49,2.72v18.05c-.05.27-.02.48.09.71l4.91,2.91v-11.44s11.93,7.05,11.93,7.05c.81.48,1.53,1.3,1.53,2.34v21.66c0,.85-.48,1.75-1.18,2.17l-10.07,6.1-11.7,7.06.02,7.11,14.4-8.61,10.69-6.41c.65-.39,1.27-.73,1.81-1.23,1.47-1.38,2.12-3.31,2.12-5.32l-.02-24.07c0-2.39-1.39-4.39-3.38-5.57l-16.65-9.86-4.51-2.66ZM29.17,0l-8.07,4.76-8.67,5.13L2.71,15.72C1.1,16.69.03,18.75.03,20.65L0,45.41c0,1.19.39,2.27.92,3.27.49.94,1.21,1.63,2.1,2.22l4.65,2.78,16.89,10.1v-18.52s-4.98-2.95-4.98-2.95l-.03,11.25-12.16-7.31c-.73-.44-1.3-1.31-1.3-2.19v-21.57c-.01-1.07.65-1.93,1.52-2.45L29.19,7.29l-.02-7.29Z"/>
    </clipPath>
    <radialGradient id="radial-gradient-5" cx="45.1" cy="57.21" fx="45.1" fy="57.21" r="66.19" xlink:href="#radial-gradient-2"/>
    <radialGradient id="radial-gradient-6" cx="142.82" cy="193.03" fx="142.82" fy="193.03" r="69.26" xlink:href="#radial-gradient"/>
    <radialGradient id="radial-gradient-7" cx="142.82" cy="193.03" fx="142.82" fy="193.03" r="69.26" xlink:href="#radial-gradient"/>
    <clipPath id="clippath-16">
      <path class="cls-1" d="M174.25,165.95c-.14,0-.32.35-.32.54v40.12c0,1.03-.62,1.86-1.4,2.33l-11.98,7.17c-.58.35-.99.38-1.6.01l-14-8.38-10.34-6.15c-.83-.58-1.69-1.4-1.69-2.52v-13.78s-10.44-6.07-10.44-6.07c-.12-.07-.41-.11-.53-.09-.09.02-.17.33-.17.56v26.27c.01.81.62,1.56,1.28,1.95l25.08,14.95,10.77,6.37c.59.35,1.02.37,1.66-.01l22.89-13.7c.61-.36,1.58-1.06,1.58-1.86v-40.47c.01-.63-.48-1.27-.97-1.56l-9.26-5.56c-.12-.07-.44-.14-.57-.13ZM126.16,157.78c-.42-.01-.84.13-1.36.44l-22.74,13.52c-.61.37-1.45.99-1.45,1.8v39.31c-.05.93.36,1.66,1.12,2.11l9.95,5.84.02-40.35c0-.7.5-1.52,1.03-1.83l3.53-2.09,8.94-5.3c.6-.35,1.21-.28,1.89.12l23.75,14.13c.88.52,1.78,1.61,1.78,2.61l.05,12.52c.1.47.4.82.79,1.11l10.37,6.07v-27.04c.01-.39-.2-.86-.5-1.04l-11.64-7.03-24.2-14.42c-.51-.3-.92-.47-1.34-.48ZM152.73,125.31l-.02,40.07c-.09.6-.02,1.08.23,1.58l10.91,6.46.02-25.39,26.45,15.66c1.8,1.07,3.41,2.89,3.41,5.2v48.09c.01,1.88-1.06,3.88-2.63,4.82l-22.35,13.54-25.97,15.68.04,15.78,31.97-19.12,23.74-14.23c1.44-.86,2.83-1.62,4.02-2.74,3.27-3.07,4.71-7.34,4.7-11.81l-.04-53.44c0-5.31-3.08-9.74-7.5-12.36l-36.97-21.9-10.01-5.9ZM143.15,119.27l-17.91,10.56-19.25,11.39-21.59,12.94c-3.57,2.14-5.94,6.73-5.95,10.93l-.06,54.98c0,2.63.87,5.03,2.04,7.27,1.1,2.09,2.7,3.62,4.65,4.92l10.32,6.17,37.49,22.42v-41.12s-11.06-6.56-11.06-6.56l-.06,24.97-27-16.22c-1.63-.98-2.88-2.9-2.88-4.87l-.02-47.9c0-2.36,1.46-4.28,3.39-5.43l47.93-28.27-.04-16.19Z"/>
    </clipPath>
    <radialGradient id="radial-gradient-8" cx="178.52" cy="246.27" fx="178.52" fy="246.27" r="146.93" xlink:href="#radial-gradient-2"/>
  </defs>
  <g>
    <path class="cls-17" d="M1348.72-266.2c-.2,0-.48.54-.48.81v60.73c0,1.56-.94,2.82-2.13,3.53l-18.14,10.85c-.88.53-1.5.57-2.42.02l-21.19-12.68-15.66-9.32c-1.25-.87-2.55-2.12-2.55-3.81l-.02-20.85-15.79-9.19c-.18-.11-.61-.16-.79-.13-.14.02-.26.5-.26.85l.02,39.77c0,1.22.93,2.36,1.92,2.96l37.97,22.63,16.31,9.65c.89.53,1.55.56,2.51-.02l34.65-20.74c.92-.55,2.39-1.61,2.39-2.81l.02-61.27c0-.96-.75-1.93-1.48-2.37l-14.01-8.41c-.18-.11-.66-.21-.87-.2ZM1275.91-278.56c-.64-.02-1.27.2-2.05.67l-34.42,20.47c-.93.55-2.2,1.49-2.2,2.72v59.51c-.08,1.41.54,2.52,1.7,3.2l15.07,8.84.04-61.08c0-1.05.76-2.3,1.55-2.77l5.34-3.16,13.53-8.02c.91-.54,1.84-.43,2.87.19l35.96,21.39c1.34.79,2.69,2.44,2.7,3.96l.07,18.95c.14.72.6,1.25,1.2,1.68l15.7,9.19.02-40.93c0-.58-.32-1.3-.78-1.57l-17.62-10.65-36.64-21.83c-.77-.46-1.4-.7-2.03-.72ZM1316.14-327.72l-.04,60.66c-.14.92-.03,1.63.35,2.38l16.51,9.78.04-38.44,40.04,23.7c2.73,1.62,5.16,4.37,5.16,7.88l.02,72.8c0,2.85-1.63,5.87-3.99,7.3l-33.83,20.5-39.32,23.74.06,23.89,48.4-28.95,35.94-21.54c2.18-1.31,4.28-2.45,6.08-4.14,4.95-4.64,7.12-11.12,7.12-17.88l-.06-80.9c0-8.04-4.66-14.75-11.35-18.71l-55.96-33.15-15.16-8.93ZM1301.63-336.87l-27.12,15.99-29.14,17.25-32.69,19.6c-5.41,3.24-9,10.19-9,16.55l-.09,83.23c0,3.98,1.31,7.62,3.09,11,1.66,3.17,4.08,5.48,7.04,7.45l15.62,9.34,56.76,33.94.02-62.25-16.77-9.93-.09,37.81-40.88-24.55c-2.46-1.48-4.36-4.39-4.36-7.38l-.04-72.51c0-3.58,2.21-6.48,5.14-8.23l72.56-42.8-.06-24.51Z"/>
    <g class="cls-20">
      <rect class="cls-17" x="82.93" y="-571.08" width="2013.59" height="1132.64"/>
    </g>
  </g>
  <g>
    <path d="M962.43-266.2c-.2,0-.48.54-.48.81v60.73c0,1.56-.94,2.82-2.13,3.53l-18.14,10.85c-.88.53-1.5.57-2.42.02l-21.19-12.68-15.66-9.32c-1.25-.87-2.55-2.12-2.55-3.81l-.02-20.85-15.79-9.19c-.18-.11-.61-.16-.79-.13-.14.02-.26.5-.26.85l.02,39.77c0,1.22.93,2.36,1.92,2.96l37.97,22.63,16.31,9.65c.89.53,1.55.56,2.51-.02l34.65-20.74c.92-.55,2.39-1.61,2.39-2.81l.02-61.27c0-.96-.75-1.93-1.48-2.37l-14.01-8.41c-.18-.11-.66-.21-.87-.2ZM889.62-278.56c-.64-.02-1.27.2-2.05.67l-34.42,20.47c-.93.55-2.2,1.49-2.2,2.72v59.51c-.08,1.41.54,2.52,1.7,3.2l15.07,8.84.04-61.08c0-1.05.76-2.3,1.55-2.77l5.34-3.16,13.53-8.02c.91-.54,1.84-.43,2.87.19l35.96,21.39c1.34.79,2.69,2.44,2.7,3.96l.07,18.95c.14.72.6,1.25,1.2,1.68l15.7,9.19.02-40.93c0-.58-.32-1.3-.78-1.57l-17.62-10.65-36.64-21.83c-.77-.46-1.4-.7-2.03-.72ZM929.85-327.72l-.04,60.66c-.14.92-.03,1.63.35,2.38l16.51,9.78.04-38.44,40.04,23.7c2.73,1.62,5.16,4.37,5.16,7.88l.02,72.8c0,2.85-1.63,5.87-3.99,7.3l-33.83,20.5-39.32,23.74.06,23.89,48.4-28.95,35.94-21.54c2.18-1.31,4.28-2.45,6.08-4.14,4.95-4.64,7.12-11.12,7.12-17.88l-.06-80.9c0-8.04-4.66-14.75-11.35-18.71l-55.96-33.15-15.16-8.93ZM915.34-336.87l-27.12,15.99-29.14,17.25-32.69,19.6c-5.41,3.24-9,10.19-9,16.55l-.09,83.23c0,3.98,1.31,7.62,3.09,11,1.66,3.17,4.08,5.48,7.04,7.45l15.62,9.34,56.76,33.94.02-62.25-16.77-9.93-.09,37.81-40.88-24.55c-2.46-1.48-4.36-4.39-4.36-7.38l-.04-72.51c0-3.58,2.21-6.48,5.14-8.23l72.56-42.8-.06-24.51Z"/>
    <g class="cls-14">
      <rect x="-303.36" y="-571.08" width="2013.59" height="1132.64"/>
    </g>
  </g>
  <g>
    <path d="M946.83,165.95c-.14,0-.32.35-.32.54v40.12c0,1.03-.62,1.86-1.4,2.33l-11.98,7.17c-.58.35-.99.38-1.6.01l-14-8.38-10.34-6.15c-.83-.58-1.69-1.4-1.69-2.52v-13.78s-10.44-6.07-10.44-6.07c-.12-.07-.41-.11-.53-.09-.09.02-.17.33-.17.56v26.27c.01.81.62,1.56,1.28,1.95l25.08,14.95,10.77,6.37c.59.35,1.02.37,1.66-.01l22.89-13.7c.61-.36,1.58-1.06,1.58-1.86v-40.47c.01-.63-.48-1.27-.97-1.56l-9.26-5.56c-.12-.07-.44-.14-.57-.13ZM898.74,157.78c-.42-.01-.84.13-1.36.44l-22.74,13.52c-.61.37-1.45.99-1.45,1.8v39.31c-.05.93.36,1.66,1.12,2.11l9.95,5.84.02-40.35c0-.7.5-1.52,1.03-1.83l3.53-2.09,8.94-5.3c.6-.35,1.21-.28,1.89.12l23.75,14.13c.88.52,1.78,1.61,1.78,2.61l.05,12.52c.1.47.4.82.79,1.11l10.37,6.07v-27.04c.01-.39-.2-.86-.5-1.04l-11.64-7.03-24.2-14.42c-.51-.3-.92-.47-1.34-.48ZM925.31,125.31l-.02,40.07c-.09.6-.02,1.08.23,1.58l10.91,6.46.02-25.39,26.45,15.66c1.8,1.07,3.41,2.89,3.41,5.2v48.09c.01,1.88-1.06,3.88-2.63,4.82l-22.35,13.54-25.97,15.68.04,15.78,31.97-19.12,23.74-14.23c1.44-.86,2.83-1.62,4.02-2.74,3.27-3.07,4.71-7.34,4.7-11.81l-.04-53.44c0-5.31-3.08-9.74-7.5-12.36l-36.97-21.9-10.01-5.9ZM915.72,119.27l-17.91,10.56-19.25,11.39-21.59,12.94c-3.57,2.14-5.94,6.73-5.95,10.93l-.06,54.98c0,2.63.87,5.03,2.04,7.27,1.1,2.09,2.7,3.62,4.65,4.92l10.32,6.17,37.49,22.42v-41.12s-11.06-6.56-11.06-6.56l-.06,24.97-27-16.22c-1.63-.98-2.88-2.9-2.88-4.87l-.02-47.9c0-2.36,1.46-4.28,3.39-5.43l47.93-28.27-.04-16.19Z"/>
    <g class="cls-13">
      <rect x="110.72" y="-35.44" width="1330.06" height="748.16"/>
    </g>
  </g>
  <g>
    <path class="cls-18" d="M576.14-266.2c-.2,0-.48.54-.48.81v60.73c0,1.56-.94,2.82-2.13,3.53l-18.14,10.85c-.88.53-1.5.57-2.42.02l-21.19-12.68-15.66-9.32c-1.25-.87-2.55-2.12-2.55-3.81l-.02-20.85-15.79-9.19c-.18-.11-.61-.16-.79-.13-.14.02-.26.5-.26.85l.02,39.77c0,1.22.93,2.36,1.92,2.96l37.97,22.63,16.31,9.65c.89.53,1.55.56,2.51-.02l34.65-20.74c.92-.55,2.39-1.61,2.39-2.81l.02-61.27c0-.96-.75-1.93-1.48-2.37l-14.01-8.41c-.18-.11-.66-.21-.87-.2ZM503.33-278.56c-.64-.02-1.27.2-2.05.67l-34.42,20.47c-.93.55-2.2,1.49-2.2,2.72v59.51c-.08,1.41.54,2.52,1.7,3.2l15.07,8.84.04-61.08c0-1.05.76-2.3,1.55-2.77l5.34-3.16,13.53-8.02c.91-.54,1.84-.43,2.87.19l35.96,21.39c1.34.79,2.69,2.44,2.7,3.96l.07,18.95c.14.72.6,1.25,1.2,1.68l15.7,9.19.02-40.93c0-.58-.32-1.3-.78-1.57l-17.62-10.65-36.64-21.83c-.77-.46-1.4-.7-2.03-.72ZM543.56-327.72l-.04,60.66c-.14.92-.03,1.63.35,2.38l16.51,9.78.04-38.44,40.04,23.7c2.73,1.62,5.16,4.37,5.16,7.88l.02,72.8c0,2.85-1.63,5.87-3.99,7.3l-33.83,20.5-39.32,23.74.06,23.89,48.4-28.95,35.94-21.54c2.18-1.31,4.28-2.45,6.08-4.14,4.95-4.64,7.12-11.12,7.12-17.88l-.06-80.9c0-8.04-4.66-14.75-11.35-18.71l-55.96-33.15-15.16-8.93ZM529.05-336.87l-27.12,15.99-29.14,17.25-32.69,19.6c-5.41,3.24-9,10.19-9,16.55l-.09,83.23c0,3.98,1.31,7.62,3.09,11,1.66,3.17,4.08,5.48,7.04,7.45l15.62,9.34,56.76,33.94.02-62.25-16.77-9.93-.09,37.81-40.88-24.55c-2.46-1.48-4.36-4.39-4.36-7.38l-.04-72.51c0-3.58,2.21-6.48,5.14-8.23l72.56-42.8-.06-24.51Z"/>
    <g class="cls-15">
      <rect class="cls-18" x="-689.64" y="-571.08" width="2013.59" height="1132.64"/>
    </g>
  </g>
  <g>
    <path class="cls-18" d="M429.47,21.03c-.06,0-.14.16-.14.24v18.07c0,.46-.28.84-.63,1.05l-5.4,3.23c-.26.16-.45.17-.72,0l-6.3-3.77-4.66-2.77c-.37-.26-.76-.63-.76-1.13v-6.21s-4.7-2.73-4.7-2.73c-.05-.03-.18-.05-.24-.04-.04,0-.08.15-.08.25v11.83c0,.36.28.7.58.88l11.3,6.73,4.85,2.87c.27.16.46.17.75,0l10.31-6.17c.27-.16.71-.48.71-.84v-18.23c0-.29-.22-.57-.43-.7l-4.17-2.5c-.05-.03-.2-.06-.26-.06ZM407.81,17.35c-.19,0-.38.06-.61.2l-10.24,6.09c-.28.16-.65.44-.65.81v17.71c-.02.42.16.75.51.95l4.48,2.63v-18.18c.01-.31.24-.68.47-.83l1.59-.94,4.03-2.39c.27-.16.55-.13.85.06l10.7,6.36c.4.24.8.73.8,1.18l.02,5.64c.04.21.18.37.36.5l4.67,2.73v-12.18c0-.17-.09-.39-.23-.47l-5.24-3.17-10.9-6.5c-.23-.14-.42-.21-.61-.21ZM419.78,2.72v18.05c-.05.27-.02.48.09.71l4.91,2.91v-11.44s11.93,7.05,11.93,7.05c.81.48,1.53,1.3,1.53,2.34v21.66c0,.85-.48,1.75-1.18,2.17l-10.07,6.1-11.7,7.06.02,7.11,14.4-8.61,10.69-6.41c.65-.39,1.27-.73,1.81-1.23,1.47-1.38,2.12-3.31,2.12-5.32l-.02-24.07c0-2.39-1.39-4.39-3.38-5.57l-16.65-9.86-4.51-2.66ZM415.46,0l-8.07,4.76-8.67,5.13-9.73,5.83c-1.61.96-2.68,3.03-2.68,4.92l-.03,24.77c0,1.19.39,2.27.92,3.27.49.94,1.21,1.63,2.1,2.22l4.65,2.78,16.89,10.1v-18.52s-4.98-2.95-4.98-2.95l-.03,11.25-12.16-7.31c-.73-.44-1.3-1.31-1.3-2.19v-21.57c-.01-1.07.65-1.93,1.52-2.45l21.59-12.73-.02-7.29Z"/>
    <g class="cls-16">
      <rect class="cls-18" x="52.84" y="-69.69" width="599.13" height="337.01"/>
    </g>
  </g>
  <g>
    <path class="cls-18" d="M560.54,165.95c-.14,0-.32.35-.32.54v40.12c0,1.03-.62,1.86-1.4,2.33l-11.98,7.17c-.58.35-.99.38-1.6.01l-14-8.38-10.34-6.15c-.83-.58-1.69-1.4-1.69-2.52v-13.78s-10.44-6.07-10.44-6.07c-.12-.07-.41-.11-.53-.09-.09.02-.17.33-.17.56v26.27c.01.81.62,1.56,1.28,1.95l25.08,14.95,10.77,6.37c.59.35,1.02.37,1.66-.01l22.89-13.7c.61-.36,1.58-1.06,1.58-1.86v-40.47c.01-.63-.48-1.27-.97-1.56l-9.26-5.56c-.12-.07-.44-.14-.57-.13ZM512.45,157.78c-.42-.01-.84.13-1.36.44l-22.74,13.52c-.61.37-1.45.99-1.45,1.8v39.31c-.05.93.36,1.66,1.12,2.11l9.95,5.84.02-40.35c0-.7.5-1.52,1.03-1.83l3.53-2.09,8.94-5.3c.6-.35,1.21-.28,1.89.12l23.75,14.13c.88.52,1.78,1.61,1.78,2.61l.05,12.52c.1.47.4.82.79,1.11l10.37,6.07v-27.04c.01-.39-.2-.86-.5-1.04l-11.64-7.03-24.2-14.42c-.51-.3-.92-.47-1.34-.48ZM539.02,125.31l-.02,40.07c-.09.6-.02,1.08.23,1.58l10.91,6.46.02-25.39,26.45,15.66c1.8,1.07,3.41,2.89,3.41,5.2v48.09c.01,1.88-1.06,3.88-2.63,4.82l-22.35,13.54-25.97,15.68.04,15.78,31.97-19.12,23.74-14.23c1.44-.86,2.83-1.62,4.02-2.74,3.27-3.07,4.71-7.34,4.7-11.81l-.04-53.44c0-5.31-3.08-9.74-7.5-12.36l-36.97-21.9-10.01-5.9ZM529.44,119.27l-17.91,10.56-19.25,11.39-21.59,12.94c-3.57,2.14-5.94,6.73-5.95,10.93l-.06,54.98c0,2.63.87,5.03,2.04,7.27,1.1,2.09,2.7,3.62,4.65,4.92l10.32,6.17,37.49,22.42v-41.12s-11.06-6.56-11.06-6.56l-.06,24.97-27-16.22c-1.63-.98-2.88-2.9-2.88-4.87l-.02-47.9c0-2.36,1.46-4.28,3.39-5.43l47.93-28.27-.04-16.19Z"/>
    <g class="cls-10">
      <rect class="cls-18" x="-275.56" y="-35.44" width="1330.06" height="748.16"/>
    </g>
  </g>
  <g>
    <path class="cls-8" d="M190.41-266.2c-.2,0-.48.54-.48.81v60.73c0,1.56-.94,2.82-2.13,3.53l-18.14,10.85c-.88.53-1.5.57-2.42.02l-21.19-12.68-15.66-9.32c-1.25-.87-2.55-2.12-2.55-3.81l-.02-20.85-15.79-9.19c-.18-.11-.61-.16-.79-.13-.14.02-.26.5-.26.85l.02,39.77c0,1.22.93,2.36,1.92,2.96l37.97,22.63,16.31,9.65c.89.53,1.55.56,2.51-.02l34.65-20.74c.92-.55,2.39-1.61,2.39-2.81l.02-61.27c0-.96-.75-1.93-1.48-2.37l-14.01-8.41c-.18-.11-.66-.21-.87-.2ZM117.6-278.56c-.64-.02-1.27.2-2.05.67l-34.42,20.47c-.93.55-2.2,1.49-2.2,2.72v59.51c-.08,1.41.54,2.52,1.7,3.2l15.07,8.84.04-61.08c0-1.05.76-2.3,1.55-2.77l5.34-3.16,13.53-8.02c.91-.54,1.84-.43,2.87.19l35.96,21.39c1.34.79,2.69,2.44,2.7,3.96l.07,18.95c.14.72.6,1.25,1.2,1.68l15.7,9.19.02-40.93c0-.58-.32-1.3-.78-1.57l-17.62-10.65-36.64-21.83c-.77-.46-1.4-.7-2.03-.72ZM157.83-327.72l-.04,60.66c-.14.92-.03,1.63.35,2.38l16.51,9.78.04-38.44,40.04,23.7c2.73,1.62,5.16,4.37,5.16,7.88l.02,72.8c0,2.85-1.63,5.87-3.99,7.3l-33.83,20.5-39.32,23.74.06,23.89,48.4-28.95,35.94-21.54c2.18-1.31,4.28-2.45,6.08-4.14,4.95-4.64,7.12-11.12,7.12-17.88l-.06-80.9c0-8.04-4.66-14.75-11.35-18.71l-55.96-33.15-15.16-8.93ZM143.32-336.87l-27.12,15.99-29.14,17.25-32.69,19.6c-5.41,3.24-9,10.19-9,16.55l-.09,83.23c0,3.98,1.31,7.62,3.09,11,1.66,3.17,4.08,5.48,7.04,7.45l15.62,9.34,56.76,33.94.02-62.25-16.77-9.93-.09,37.81-40.88-24.55c-2.46-1.48-4.36-4.39-4.36-7.38l-.04-72.51c0-3.58,2.21-6.48,5.14-8.23l72.56-42.8-.06-24.51Z"/>
    <g class="cls-12">
      <rect class="cls-7" x="-1075.38" y="-571.08" width="2013.59" height="1132.64"/>
    </g>
  </g>
  <path class="cls-19" d="M245.24,25.99c.81-.07,1.66.03,2.52.31,2.62.85,4.04,3.49,4.07,6.25.03,2.63-.98,5.15-3.44,6.43-1.7.89-3.55.9-5.2.08-3.17-1.57-3.76-5.55-3.04-8.55.63-2.61,2.67-4.3,5.1-4.51ZM80.9,25.99c2.5-.21,4.7.92,5.76,3.21,1.12,2.43,1.08,5.32-.29,7.72-1.21,2.11-3.62,3.04-6.09,2.59-2.06-.37-3.84-2.13-4.41-4.45-.96-3.98.49-8.68,5.04-9.07ZM219.29,25.97c2.04.1,3.99,1.4,4.88,3.52,1.05,2.48.86,5.52-.72,7.84-1.14,1.67-2.95,2.33-4.74,2.32-1.71-.01-3.54-.85-4.59-2.44-1.6-2.44-1.69-5.78-.31-8.35,1.1-2.05,3.26-2.99,5.48-2.89ZM273.08,25.74c3.21-.3,5.86,1.52,6.37,4.73l-11.53-.02c.65-2.65,2.59-4.47,5.16-4.71ZM169.03,21.15l.02,23.27,6-.02v-23.24l-6.02-.02ZM193.11,20.74c-2.51.09-4.76,1.05-6.42,3.07l-.08-2.64h-6.09v23.25h6.12s.11-13.69.11-13.69c.02-2.84,2.5-4.75,5.14-4.76,2.37-.01,4.29,1.42,4.77,3.84.28,1.41.32,2.85.31,4.24l-.06,10.39h5.99v-13.78c0-4.72-2.29-8.83-7.21-9.72-.88-.16-1.74-.23-2.58-.2ZM126.15,20.72c-3.18.13-6.03,1.51-7.72,4.27-.65-1.34-1.44-2.3-2.64-2.96-3.62-2-9.17-1.9-12.06,1.73l-.11-2.59-5.91.02-.03,23.25h6.05l.02-13.35c0-2.05,1.27-3.8,2.84-4.53,1.83-.85,3.87-.81,5.39.57,1.09.99,1.72,2.63,1.72,4.16l.03,13.18,6.11-.06.08-13.49c.02-3.17,2.83-5.25,5.89-4.9,2.22.25,4.1,2.12,4.11,4.51l.08,13.89,6,.02v-14.38c0-5.51-4.38-9.56-9.84-9.33ZM154.46,20.71c-2.64-.05-5.29.93-7.18,3.05l-.03-2.58-6.03-.02v23.25l6.08.02.12-13.72c.02-3.02,2.74-4.96,5.74-4.71,2.43.2,4.42,2.06,4.44,4.53l.11,13.91h6.08l-.06-14.52c0-2.21-.7-4.45-2.18-6.08-1.81-1.99-4.44-3.08-7.08-3.13ZM82.3,20.71c-1.73-.09-3.48.14-5.14.68-4.19,1.36-6.99,4.97-7.66,9.26-.84,5.4,1.19,10.4,6.12,13,6.03,2.53,13.97,1.16,16.87-5.43,2.45-5.69.73-13.49-5.2-16.26-1.57-.73-3.26-1.15-4.99-1.24ZM218.39,20.69c-1.73.05-3.45.43-5.05,1.15-4.46,1.99-6.72,6.58-6.63,11.36.09,4.87,2.74,9.18,7.35,10.82,5.91,2.11,13.64.17,16.07-6.51,2.27-6.25-.13-13.83-6.6-16.04-1.66-.57-3.41-.84-5.14-.78ZM273.62,20.68c-1.86.03-3.71.44-5.4,1.21-4.2,1.92-6.28,6.17-6.34,10.67-.07,4.83,2.2,9.31,6.75,11.24,2.92,1.24,6.21,1.3,9.27.46,3.5-.96,6.02-3.56,7.24-7.18l-6.34-.05c-1.52,2.4-4.05,3.22-6.72,2.49-2.09-.57-3.92-2.59-4.16-5.02h17.62c.58-5.24-1.57-10.69-6.46-12.77-1.73-.73-3.6-1.08-5.46-1.04ZM251.8,12.73l-.03,11.17c-1.68-2.02-3.81-3-6.34-3.18-4.48-.32-8.46,1.95-10.5,5.99-2.87,6.05-1.29,14.77,5.5,17.35,3.8,1.45,8.67.92,11.36-2.39l.03,2.79h6.05V12.74l-6.06-.02ZM172.77,11.35c-.51-.09-1.04-.09-1.57.02-1.77.34-3.05,1.82-2.99,3.53.05,1.7,1.35,3.09,3.13,3.38,2.28.37,4.65-1.2,4.45-3.76-.14-1.77-1.48-2.88-3.02-3.16Z"/>
  <g>
    <path class="cls-6" d="M43.18,21.03c-.06,0-.14.16-.14.24v18.07c0,.46-.28.84-.63,1.05l-5.4,3.23c-.26.16-.45.17-.72,0l-6.3-3.77-4.66-2.77c-.37-.26-.76-.63-.76-1.13v-6.21s-4.7-2.73-4.7-2.73c-.05-.03-.18-.05-.24-.04-.04,0-.08.15-.08.25v11.83c0,.36.28.7.58.88l11.3,6.73,4.85,2.87c.27.16.46.17.75,0l10.31-6.17c.27-.16.71-.48.71-.84v-18.23c0-.29-.22-.57-.43-.7l-4.17-2.5c-.05-.03-.2-.06-.26-.06ZM21.52,17.35c-.19,0-.38.06-.61.2l-10.24,6.09c-.28.16-.65.44-.65.81v17.71c-.02.42.16.75.51.95l4.48,2.63v-18.18c.01-.31.24-.68.47-.83l1.59-.94,4.03-2.39c.27-.16.55-.13.85.06l10.7,6.36c.4.24.8.73.8,1.18l.02,5.64c.04.21.18.37.36.5l4.67,2.73v-12.18c0-.17-.09-.39-.23-.47l-5.24-3.17-10.9-6.5c-.23-.14-.42-.21-.61-.21ZM33.49,2.72v18.05c-.05.27-.02.48.09.71l4.91,2.91v-11.44s11.93,7.05,11.93,7.05c.81.48,1.53,1.3,1.53,2.34v21.66c0,.85-.48,1.75-1.18,2.17l-10.07,6.1-11.7,7.06.02,7.11,14.4-8.61,10.69-6.41c.65-.39,1.27-.73,1.81-1.23,1.47-1.38,2.12-3.31,2.12-5.32l-.02-24.07c0-2.39-1.39-4.39-3.38-5.57l-16.65-9.86-4.51-2.66ZM29.17,0l-8.07,4.76-8.67,5.13L2.71,15.72C1.1,16.69.03,18.75.03,20.65L0,45.41c0,1.19.39,2.27.92,3.27.49.94,1.21,1.63,2.1,2.22l4.65,2.78,16.89,10.1v-18.52s-4.98-2.95-4.98-2.95l-.03,11.25-12.16-7.31c-.73-.44-1.3-1.31-1.3-2.19v-21.57c-.01-1.07.65-1.93,1.52-2.45L29.19,7.29l-.02-7.29Z"/>
    <g class="cls-11">
      <rect class="cls-3" x="-333.45" y="-69.69" width="599.13" height="337.01"/>
    </g>
  </g>
  <g>
    <path class="cls-2" d="M174.25,165.95c-.14,0-.32.35-.32.54v40.12c0,1.03-.62,1.86-1.4,2.33l-11.98,7.17c-.58.35-.99.38-1.6.01l-14-8.38-10.34-6.15c-.83-.58-1.69-1.4-1.69-2.52v-13.78s-10.44-6.07-10.44-6.07c-.12-.07-.41-.11-.53-.09-.09.02-.17.33-.17.56v26.27c.01.81.62,1.56,1.28,1.95l25.08,14.95,10.77,6.37c.59.35,1.02.37,1.66-.01l22.89-13.7c.61-.36,1.58-1.06,1.58-1.86v-40.47c.01-.63-.48-1.27-.97-1.56l-9.26-5.56c-.12-.07-.44-.14-.57-.13ZM126.16,157.78c-.42-.01-.84.13-1.36.44l-22.74,13.52c-.61.37-1.45.99-1.45,1.8v39.31c-.05.93.36,1.66,1.12,2.11l9.95,5.84.02-40.35c0-.7.5-1.52,1.03-1.83l3.53-2.09,8.94-5.3c.6-.35,1.21-.28,1.89.12l23.75,14.13c.88.52,1.78,1.61,1.78,2.61l.05,12.52c.1.47.4.82.79,1.11l10.37,6.07v-27.04c.01-.39-.2-.86-.5-1.04l-11.64-7.03-24.2-14.42c-.51-.3-.92-.47-1.34-.48ZM152.73,125.31l-.02,40.07c-.09.6-.02,1.08.23,1.58l10.91,6.46.02-25.39,26.45,15.66c1.8,1.07,3.41,2.89,3.41,5.2v48.09c.01,1.88-1.06,3.88-2.63,4.82l-22.35,13.54-25.97,15.68.04,15.78,31.97-19.12,23.74-14.23c1.44-.86,2.83-1.62,4.02-2.74,3.27-3.07,4.71-7.34,4.7-11.81l-.04-53.44c0-5.31-3.08-9.74-7.5-12.36l-36.97-21.9-10.01-5.9ZM143.15,119.27l-17.91,10.56-19.25,11.39-21.59,12.94c-3.57,2.14-5.94,6.73-5.95,10.93l-.06,54.98c0,2.63.87,5.03,2.04,7.27,1.1,2.09,2.7,3.62,4.65,4.92l10.32,6.17,37.49,22.42v-41.12s-11.06-6.56-11.06-6.56l-.06,24.97-27-16.22c-1.63-.98-2.88-2.9-2.88-4.87l-.02-47.9c0-2.36,1.46-4.28,3.39-5.43l47.93-28.27-.04-16.19Z"/>
    <g class="cls-9">
      <rect class="cls-5" x="-661.85" y="-35.44" width="1330.06" height="748.16"/>
    </g>
  </g>
</svg>
